<?xml version="1.0" encoding="UTF-8"?><svg id="Layer_1" xmlns="http://www.w3.org/2000/svg" viewBox="0 0 639.81 636.58"><g id="Samurai"><path d="M470.27,570.53h2s0,2,0,2c-4.91,1.82-10.14,5.75-16,4.99l10.39-3.9c.7-4.74,2.22-2.39,3.6-3.09Z" fill="#cbcbcc"/><path d="M348.27,128.53c-.18-2.9-.95-6.76-1.98-9.51l4.99,8.5,1.98-6.99c2.76,10.63,6.68,21.62,12.01,30.99,2.15,8.67,5.01,16.25.99,24.99l-1.43-9.05c-1.51-2.79-5.65-15.46-8.19-15.86l-4.37,1.91c-.33-2.14,1.02-5.64-1-7,.73-5.85-2.54-12.35-3-18Z" fill="#dedede"/><path d="M286.27,183.53c-.46-.27-.68-.74-1-1,.12.1,1.07-.22,1,1Z" fill="#d6d7d8"/><path d="M280.27,178.53c3.81-1.03,2.85,1.81,4,3-2.22-.41-3.58-.33-3,1.99l4.49,1.01.51-1c.99.57,4.32-.69,4,3-.71-1.49-1.18-2.47-3-2.01,1.34,5.48-3.52,3.61-4.02,7-2.35-.6-2.27-7.42-6.98-8,3.58-1.22,3.56-.42,1.99-3.99.04-.1,1.42-.23,2-1Z" fill="#d6d7d8"/><path d="M285.27,182.53c-.38-.3-.67-.66-1-1,.46.09.69.74,1,1Z" fill="#d6d7d8"/><path d="M351.27,144.53c-3.04.59-1.75-1.48-2.14-3.31-.97-4.64-.57-7.14-.86-10.69,1.46,3.97,3.02,9.82,3,14Z" fill="#232221"/><path d="M304.27,320.53c5.44-.52,11.92,1.37,16.29,4.95,1.82,1.84.24,3.36,4.71,5.05,3.19,1.21,2.33-.42,4.73-.84,3.1-.55,9.89,5.21,7.29,8.35.43,1.07,1.79-.99,2.98-.51.06.95-.08,2.11,0,3l-4,2.01v1.99c2.3-.46,1.69,1.62,2,2-2.52.78-1.84-1.88-2-2-6.88-5.39-24.07-13.08-32.62-14.9-2.99-.63-.31,4.93-1.88,4.91,3.5-12.51-40.79-2.96-48.5-4.01l-1.98-3.95c2.45-.24,3.35-1.63,2.98-4.05,16.46-6.14,15.52-4.16,31.3-3.97,1.17-.3,1.13-2.73,2.24-3.01,5.14,2.11,11.48,3.6,16.45,4.98Z" fill="#d6d7d8"/><path d="M452.27,540.53c-11.5-1.42-9.03,3.38-16.98,7.51,7.35-1.02,13.21-6.8,20.98-5.52,0-1.35-2.44-1.26-4-1.99,9.55.19,21.53,4.41,24.06,14.33-.63,2.89-32.6,16.92-38.06,15.66l28.99-12c.36-1.38-1.12-1.15-1.99-.99l.51-2.98-2.51.98c0-.07-.69-.61-1-1,1.81-.21.35-1.22-.51-1.98l-.49.98h-1c-.74-1.95-3.43-.65-5-1-.05-.33.04-.67,0-1l-1.45-1.02c-6.68.58-14.45-.79-20.96.11-5.13.7-9.21,4.88-14.58,4.9l17.34-10.14c7.7-6.93,3.24-11.15,16.65-4.85ZM468.77,555.53v1c.65-.33.65-.67,0-1Z" fill="#dedede"/><path d="M240.27,317.53l4.51,1.02-1.51,3.97c.97.11,2.06-.14,2.99,0-.3,3.42.84,7.08-1,10-8.48,1.4-19.4,10.18-21.01,18.99-1.97-.02-.74-3.62-.99-4.99,2.47-3.02,2.34-4.78,2-8,4.57-2.91,5.3-7.8,6-12,2.14-2.18,6.5-4.94,6-8,.78-.04,2.46-.52,3-1Z" fill="#cbcbcc"/><path d="M292.27,350.53c1.01,5.6.91,11.32,1,17l-22,1c1.33-3.48,7.07-1.84,7-6,.64.91,1.04,3.18,1.49,3l1.39-4.88-3.31-1.19-.58,2.08c-.32.05-.68-.07-1,0-.43-1.43-1.54-1.99-3-2-.07-.99.05-2.01,0-3,9.92,5.19,3.74-5.77,11-8,1.92-.78,4.55-.8,6.54-1.8,1.87.76,1.21,2.43,1.46,3.8ZM291.16,356.43l-1.38-4.87c-3.29,1.13-3.61,3.69-3.5,6.97l4.88-2.1ZM288.25,363.52l1.01-3.99-2.97,2.01-.02,1.97h1.98Z" fill="#d6d7d8"/><path d="M343.27,344.53c.35,1.33.67,2.66,1,4l-1,1c-.34-2.24-3.47-7.93-3-11,1.74.56,2.49,4.04,3,6Z" fill="#373738"/><path d="M342.27,324.53c2.02.51,2.42.43,3.17,2.81l1.81-.82c-.27,1.53.71,2.78,1.01,4.01l-2.48-2.01-2.54,1.51.62,2.52c6.32-.87,11.33,1.85,13.4,7.98-2.64.58-3.98-1.84-7-1.01l.99-2.99-1.94.97c-.26-.63.11-1.5-.05-1.98l.99-.51c.25-3.24-1.59-.66-1.99-.49s-1.37-.1-2,0c1.06,2,1.91,6.31,3,7.99-1.64.81-.91,3.39-.99,5h1.99s0-4,0-4c.13.12,2.54,1.71,3,2,4.49,1.86-1.53,3.64-2,5.99,2,.02,5.02.68,5,3.01l-8.4-1.07c-1.03,1.32-.16,2.63-2.59,2.07-.22-1.36-.73-2.65-1.01-4,.65-.25,1.37-.87,2-1,.07-.01.45.91.93.99l1.07-2.98c-5.27.93-.87-4.71-5-4.01-.58-.9,1.14-7.44-1.5-7.91-.68.26-1.5,1.2-2.5.91.26-1.56-.63-2.73-1-4,.51-1.2,1.03-4.88,1-6,.8-1.21,1.97-2.03,3-3Z" fill="#373738"/><path d="M338.27,321.53c-.9,1.67.98,2.84,1,3-.35-2.01,1.15-2.96,3-3l2.01,1.5c.11.52-1.39.91-2.01,1.5-.82-.21-2.06.13-3,0,.09.63-.02,1.35,0,2-.62.12-1.52-.17-2,0-.61-1.62-.71-3.32-1-5h2Z" fill="#373738"/><path d="M317.27,421.53c.18.47-.12,1.39,0,2-.49-.42-2.98-.24-3-1.99.98.05,2.02-.12,3,0Z" fill="#cbcbcc"/><path d="M293.27,421.53c11.84-3.29,16.67-15.19,26.63-11.16,3.55,3.93,8.33,4.13,13.37,6.16v1c-4.84-2.84-10-1.12-14.99-3-.2.86.26,2.47,0,3-10.67.45-20.39,8.86-31,10,2.81-1.7,5.47-3.72,8.99-4.01l-2.99-1.99Z" fill="#cbcbcc"/><path d="M318.27,417.53c4.75-.2,8.51.68,13,2.02l-1.01,1.97c1.95.35,4.09.53,6,1.01v7c-2.29-2.67-5.04-5.51-8-2h-1c.51-3.11-.94-1.65-3-2-.41-1.03-.14-2.24-1.5-3l-.5,2c-.94.13-2.16-.19-3,0,0-.63,0-2.34,0-3-.65-.09-1.35.07-2,0-1.68-4.47.16-2.3,1-4Z" fill="#cbcbcc"/><path d="M356.27,422.53c7.24-.54,14.25.54,15.92,8.38.87,1.01,2.58.1,3.09,1.28,1.65,3.79,1.6,10.64-4.01,10.33-.3-2.96,1.13-6.76-1.52-8.99-4.62,1.13,1.74,1.83.52,3.98-5.72-1.1-3.42,6.45-5.02,8.01-3.13,3.06-.89-3.87-.94-4.3-.09-.77-1.91-1.27-2.04-1.7,3.95.43,1.23-1.73,1-3,.28-4.8-1.49-10.48-6.98-10l-.02-4Z" fill="#bababb"/><path d="M280.27,402.53c-.61.42-1.02,1.11-1.96,1.05.76,1.23.58,2.96,1.08,4.12.9,2.09,4.53,2.3,3.87,4.83-4.77-1.54-3.79.06-5.99,2-3.95,3.47-3.08,2.49-7.79,4.67-1.44.67-1.17,2.74-5.14,2.26l-4.07-6.91c3.75.57-.47-6.24,10.99-5.02-.02.67-.02,1.33,0,2,3.24.32,3.31.25,2.99-2.99-1.11-.37-2.47.98-2.99,1,.15-5.06,3.26-10.66,9-7Z" fill="#4a4a4d"/><path d="M280.27,402.53c1.01-.7,3.39-2.77,3.62-2.84,3.83-1.28,12.95,1.51,10.38-7.15l4,4.99-1.5,4.01-1.49-2c.15,2.46-1.96,2.71-4.02,3.01l.94,6.91-5.87.12c.55,4.02-5.65,3.84-1.07,5.95-2.78.19-6.48,1.44-8-1,2.21-1.94,1.23-3.54,5.99-2,.66-2.54-2.97-2.75-3.87-4.83-.5-1.15-.33-2.89-1.08-4.12.94.06,1.35-.62,1.96-1.05ZM280.77,404.53v1c.65-.33.65-.67,0-1Z" fill="#9a999b"/><path d="M251.27,379.53c-.3.61-1.13,1.21-1,2.23l-2.99.78c-.61-.59.34-15.52,1.18-16.82.37-.57,3.64-1,4.91-2.64.95-1.23-.58-3.44,1.4-4.54l1.51,4.99,2-3.99c1.62-.24,1.2,2.15,1.99,2.99v5c-.65.06-1.57,1.24-3-.01v6.01c-3.22,1.95-6.61,2.05-6,6ZM259.27,364.54h-1.99s0,1.99,0,1.99l1.99-1.99Z" fill="#373738"/><path d="M364.27,528.53c1.9.48,3.87,1.92,5.99,2.03l-1,1.96c6.4-.42,4.81,3.48,6.34,5.7,1.77,2.56,5.77,4.62,4.66,9.31-3.61-.77-7.49-.6-10.99-.99l.02-4.49,2.98-.52-1.02-2.98c-2.5-.01,1.64,2-5.99,2.99-.46-2.51,1.32-3.17-.01-6l3.01-.99-5-1.02,1.01-4.99Z" fill="#9a999b"/><path d="M428.27,527.53c-1.44-1.73-3.81-3.21-5-4.99l8.99,1.98-1-2.98c3.34-.3,14.74,3.09,17,4,2.17,2.22-6.74,2.91-7,4.99-3,.59-7.32,4.46-11,2v-2c-.65-.12-1.43.12-2,0,.42-.95,1.95-2.96,0-3Z" fill="#acabad"/><path d="M405.27,425.53c3.66-.3,10-1.62,12.93.57,1.65,1.23,2.02,4.47,5.04,4.5-.92,1.93-1.54,3.82-1.97,5.93-4.84,1.26-2.34-4.96-5.99-6l-1,3-1-1.99c.17,2.09-.62,4.01-1.01,5.99-3.24-1.11-1.41-6.72-5-6-.23-.75.16-2.08-.01-2.99h-.98c.61,1.8-.69,2.95-1.01,3.99-2.93-7.04-2.44-2-7-2.01l1-2.99c1.93.13,4.02-.04,6.01,0v-2Z" fill="#cbcbcc"/><path d="M220.27,487.53c1.87-1.61-3.36-3.89-1.99-5,2.31-1.87,4.1,3.19,4.6,3.88.61.83,2.33.95,2.46,1.8-2.35,6.04,2.15,2.02,2.17,7.05.43.47,1.18.39,1.77.26l2,1c-.05,2.4-5.51,6.23-6.02,8.98l-1.94-.06-.17-1.74-2.71.67-.66-1.85c-1.19.41-2.94,6.72-4.47,8.38-.7.76-3.59-1-3.05,3.61-1.59.35-1.22-2.56-1.01-3.31.15-.52,7.54-7.25,6.02-8.68-4.6-1.37-2.77,4.91-5.99,5.99l2.05-6.41-3.06-2.59c6.08,1.18,7.27.6,12.44-1.06,1.08.08-.15,2.52,1.55,2.06,1.1-3.18-1.99-2.55-2.1-4.46-.23-4.06,3.73-9.69-1.89-8.54Z" fill="#373738"/><path d="M300.27,412.53c-5.76,1.6-8.97,2.58-15,3-4.59-2.11,1.62-1.93,1.07-5.95l5.87-.12-.94-6.91c2.06-.3,4.16-.55,4.02-3.01l1.49,2,1.5-4.01,2,15ZM296.27,404.54h-1.99v.98h1.99v-.98Z" fill="#cbcbcc"/><path d="M384.27,428.53c-.19,4.78,3.11,8.92,1.99,14l-5.41-2.07-2.57,3.08c.14-8.43-.65-11.05-5.05-17.49-.04-5.37,9.42.24,11.04,2.49ZM381.77,433.53v1c.65-.33.65-.67,0-1ZM383.27,438.52v-1.48s-1.98-1.51-1.98-1.51v2.99s1.98,0,1.98,0Z" fill="#cbcbcc"/><path d="M399.27,427.53l-1,2.99c1.49.48,2.08-.69,3-.99v9c-1.84.32-.53-1.8-1.24-2.76-.43-.57-1.66-.13-1.76-.24.4-2.61-6.14-5.86-8-4.99-.86,2.84,7.5,12.26,2,10.99-.54-1.64-.92-3.57-3-3-.09-.6.15-1.86,0-2v-3s-2,0-2,0c-.46-1.23-1.71-3.39-3-4-1.78-6.16,12.52-4.41,15-2Z" fill="#d6d7d8"/><path d="M225.27,305.53c-.59,2.66-1.86,5.83-1,8h-3.99s-.01,1.49-.01,1.49l4,1.5v-1.99c.57,2.68.72,3.21,1.01,5-2.5-.27-6.51,1.34-6.01-1.99h-.97c.62,2.79-2.4,4.23-3.01,5.99s-.23,5.27-1.05,7.27c-.64.26-2.25.91-2.95.73.54-2.56,3.12-8.04,3.01-8.48-.32-1.34-3.53-1-3-2.5,6.06-1.55.24-11.37,8.99-11.01l1,2.99c-.48-4.3-2.49-7.68,4.01-7Z" fill="#373738"/><path d="M385.27,570.53c7.59,2.58,6.64,7.59,11.85,12.69l-.34,2.32-2.49.98-4.02-3.98,4.01,10.48c.12,3.86-2.84-2.08-3.01-2.49-1.2-2.91-2.25-7.8-3.01-10.99l-1.99,3.99c-1.47-3.35-3.15-7.15-3-11,.64-.08,1.35.1,2,0v-2Z" fill="#78787a"/><path d="M297.27,375.53c-.31,5.95,14.25,5.96,15.01,7.01-.95,1.2-.64,2.91-1.01,3.99-.31.92-1.43,2.11-2,3-3.21-.5-8.47-.04-12,0l3-3.52c-3.79-1.52-3.47-6.25-5-9.48.43-.85,1.53-.71,2-1Z" fill="#dedede"/><path d="M273.27,356.53c.01,1.67-.03,3.34,0,5,1.37.01,2.73.07,4.01,0,.26.38.75.65,1,1,.07,4.16-5.67,2.52-7,6-3.82.64-3.92,3.04-8,3-2.04-7.4,8.49-9.31,3-14.99,1.09.26,2.34-.96,3-1.01,1.87-.14,2.69.7,4,1Z" fill="#5e5c5d"/><path d="M378.27,569.53c.03.33-.04.67,0,1-2.65.78-2.64-1.79,0-1Z" fill="#4a4a4d"/><path d="M378.27,569.53c-.16-2.04-.83-3.96-1.01-5.99l-1.97,1.98-1.85-2.45,1.82-7.53c.07,6.76,9.49,8.77,10.01,14.99v2c-2.78-.53-7.41,1.71-2,2,.98,2.54,1.14,7.28.99,10-5.59-.28-6.88-9.66-5.99-14,1.37.1,1.21-1.08,0-1ZM382.26,569.53h-1.99v1.99h1.99v-1.99ZM383.27,576.54h-1.99v.98h1.99v-.98Z" fill="#4a4a4d"/><path d="M357.27,346.53c2.02,1.05,2.82,4.7,8,3.01-1.71,4.34.67,8.63,2,12.99l-1.01,3c-.78-1.01-3.88-1.81-3.99-2-.28-.47.4-2.46-.08-2.94-.44-.44-2.26.16-2.92-.06-3.23-1.28-1.76-5.76-4-8,3.2-1.33,1.74-3.26,1-6,.26.14.74-.14,1,0Z" fill="#9a999b"/><path d="M341.27,558.52c-2.84.25-4.83-5.24-6.65-5.84-2.7-.89-5.34.7-8.32-2.17l3.41-3.6,2.57-.39-1.99-4.99c10.59.37,9.28,8.97,10.99,16.99ZM337.26,549.53h-1.99v1.99h1.99v-1.99Z" fill="#78787a"/><path d="M316.13,548.39l-12.71,1c-1.26-.8-1.9-9.43.84-9.86l1,4c-1.74-7.65,13.51-8.65,10.87,4.87ZM310.77,539.53v1c.65-.33.65-.67,0-1ZM313.13,543.67c-2.98-.82-6.87.22-6.85,3.85h7.99s-1.14-3.85-1.14-3.85Z" fill="#9a999b"/><path d="M315.27,356.53c5.63-2.59,7.47,5.01,10,9-3.28.32-2.67-5.36-5.99-6v4.01s1.98-1.01,1.98-1.01l.1,7.91,3.9.1c-.24-1.22.38-4.34,0-5.01.91,1.44,2.3,2.01,4,6l-1.5,3.02c-2.93.45-3.47-2.39-5.18-2.89-2.45-.72-2.17.84-2.32.87-3.19,1.27-2.07-8.26-5-11,.19-1.92-.12-2.19-2-2-.39-1.47.77-2.43,2-3Z" fill="#78787a"/><path d="M269.27,355.53l1.04-5.96c4.71.88,7.06-3.31,11.47-5.03l2.49,3.99c-5.41,2.19-2.81,5.38-5.98,9.58-2.32.08-5.97-2.69-9.02-2.58Z" fill="#bababb"/><path d="M308.27,352.53l-5.99,1v3.99c5.53.91,7.04-4.05,10.99,2.01,1.81-.21,2.22.11,2,2-1.08,2.87-1.67,2.8-4,4,1-8.91,4.09-5.43-9.35-6.08-.5-.14-2.79-5.01-5.65.08-.11-1.83-2.23-5.92-.84-8.83l2.36-1.18c1.96,3.37,4.07,2.58,5.48-.99,4.31-.71,3.83,2.49,5,4Z" fill="#bababb"/><path d="M345.27,428.53c7.39-2.64,6.82-.28,6.18,5.53.07.66,1.8.07,1.93,1.92.33,4.8-2.85,4.04-3.14,5.25-.67,2.77.13,8.04-.98,11.3l-1.99-4.99c-.69,2.24-.17,2.68-3.99,2.99v-1.48s3.99-1.52,3.99-1.52c.24-.78,1.1-4.72.99-5.01l-1.99-.99h3c.49-1.77-1.34-2.27-1.76-3.74-.21-2.54-.33-7.02-4.24-6.26.44-1.06.96-2.42,2-3Z" fill="#bababb"/><path d="M294.27,376.53l1,13c-4.44.12-11.88.23-16,1l-1-1c2.78-1.59,5.01-.86,8.01-1,.1-.64-.11-1.39,0-2h6.01c.66-1.96-.62-3.85-2.52-3.99-.29-.02-.42,1.35-.87,1.6-2.28,1.24-2.07-.73-2.61,2.39l-2.02-4.42,4.01-1.59-1.99-2.98,4.48,2,1.51-4.01c.67.28,1.51.23,2,1ZM288.26,383.52v-1.99h-.98v1.99h.98Z" fill="#d6d7d8"/><path d="M264.27,519.53c-.06-2.58,2.16-3.52-.99-4.64v-3.36s7.98-1,7.98-1l1,3.99,3.01-3.99c-1.13,2.39,2.37,10.2,0,10.99l-3.5-4-1.02,3.06c-2.21.76-4.97-.97-6.47-1.06Z" fill="#9a999b"/><path d="M343.27,436.53c-1.39,1.44-7.33,9.26-9,7.99l1.51-2.97c-4.19,3.01-9.3,6.82-14.51,6.97-.69-.5,11.94-10.38,13-10.99,1.78-1.02,5.24-1.17,7-3h1l1,2Z" fill="#cbcbcc"/><path d="M321.27,385.53c1.96,1.06,5,.32,5.5,5.01l2.5-5.01c.22,1.78-.96,4.44,1.98,4.01l.02,1.98-3.02.51,2.02,6.49c-2.44.55-4.9,2.18-6-.98l1.99-1c-1.3-.33-2.73-.58-3.99-1.01.65-1.87,1.25-3.29,0-5,.22.22,1.02-.15,1-.5-.07-1.09-1.47.03-1,.5h-6.01s0-3,0-3c1.63.38,3.37.56,4.99,1v-3Z" fill="#373738"/><path d="M271.27,527.53l2.11,7.9,3.89.1c-1.81,1.77-12.65,1.79-15.99,3-1.01-4.48,4.11-4.84,3-10.01,2.63,1.07,4.21-.55,7-.99ZM270.77,534.53v1c.65-.33.65-.67,0-1Z" fill="#9a999b"/><path d="M363.27,381.53c.93,1.45.16,3.01,2.5,3s.44-2.78,3.49-2c.17.19-.91,4.53-1.24,4.82-1.3,1.14-6.29-.7.24,5.68l-2.98,3,2.91-.5,3.07,4.99c0,.32.06.69,0,1-5.37,1.59-4.73-3.53-9-3-.13-5.29-.58-12.16,1-17Z" fill="#9a999b"/><path d="M292.27,350.53l11.73-4.77,5.27.27c-1.4,2.76-5.16-.16-5.99.51.48,3.62-3.16,7.68-5.48,2.99l-2.36,1.18c-1.39,2.91.74,7,.84,8.83-.46,4.91,1.69,10.3-2.5,14.01-1.56-6.54.28-15.95-1.5-23.01Z" fill="#4a4a4d"/><path d="M320.27,372.53c.14-.03-.13-1.59,2.32-.87,1.71.5,2.25,3.34,5.18,2.89l1.5-3.02c1.35,3.15,2.9,5.38,2.99,9.5.02,1.06-.37,7.51-2.99,6.5-.66-2.43,1.66-4.19.99-7l-1.48,1.99c-1.73-1.27-9.74-7.13-8.51-10Z" fill="#4a4a4d"/><path d="M441.27,530.53c.76-.16,7.02-.83,7.39-.76.86.16,9.39,6.29,10.61,7.75-15.69-.59-8.4-9.26-18.93-4.42-4.31,1.98-5.79,7.9-11.07,7.42l3.57-4.01c.46-.65-.58-.92-.58-.98,0-.58,0-1.41,0-2,3.31-.12,6.67-2.5,9-3Z" fill="#bababb"/><path d="M332.27,571.53c-.67-4.59,2.87-3.44,5.51-4.98l-.53,2.47,2.01.51c-.54-2.71.67-3.18,2.99-4-.17,3.34,2.62,4.1,3.07,7.45s.09,9.43-.06,13.1c-.08,1.92,1.03,4.01-2,3.45-.56-10.91,4.14-19.19-11-18Z" fill="#5e5c5d"/><path d="M245.27,488.53c-2.25,1.97-5.17,4.89-5,8-1.09,1.77-3.3.68-5,1v2c-.85.25-1.55,1.47-3,.99,1.07-2.62.58-2.67,3-2.99,0-.74.15-2.79,0-3h1.99s0-1.99,0-1.99h-1.99s0,1.99,0,1.99c-.92-1.27-.45-.07-2-3,1.84-.88,3.35-2.23,2.96-4.42l-.96-.58c.15-.15-.29-1.47.14-1.84,2.54-.19,8.74,1.54,9.86,3.84Z" fill="#acabad"/><path d="M276.17,558.68c.28.26-.24,3.76,3.09,3.84l-.98-4c4.56,2.21-.23,6.47-.5,10l-1.99,1.04-6.51-1.05,2-2.97-3-1.52v-2.5s2.82-.18,2.82-.18l.72-2.89,4.36.23ZM276.27,565.53h-2.99v1.99h2.99v-1.99Z" fill="#78787a"/><path d="M245.27,488.53c12.35,3.93,4.4,1.22,11.94-1.95.23,2.77,4.72,3.81,7.06,4.97.88,3.08-9.27-3-9.99-2.01,1.11,2.55,0,4.93,0,7-5.73,1.02-8.88,7.52-14,9-.16.14.14,1.44,0,2-2.09.28-2.27.09-1.99-1.99,3.73.75,7.36-7.94,8-11,.78,1.14,5.82.84,5.91-.48l-.92-3.52c-1.55-.29-.98,1.74-2,2.51-4.06,1.01-5.59.72-8.99,3.48-.17-3.11,2.75-6.03,5-8Z" fill="#78787a"/><path d="M283.59,543.26c.59,1.73,4.83,3,6.68,2.25l-4.01-3.48,4.37-3.43c3.08,2.23,6.52,3.37,5.65,7.91l-13.08.58c-1.03-.71-2.02-7.91.06-8.57-.06,1.66-.23,3.1.33,4.73Z" fill="#78787a"/><path d="M301.27,402.53c.08-1.36.92-2.63,1.01-3.99l.99,1.99,3.5-1.99c.77,2.78,2.85,1.78,5.08,2.91l.42-1.9c1.7-.42.59,1.38,1.11,1.92.64.68,1.78-.94,1.88-.93,1.11.14,7.63,3.56,5.99,4.99h-11.99c.3-.39,1.15-1.85,1-1.98h-6.41c-.98-.05-.21-4.43-2.59-.01-.02-.33-.02-.67,0-1Z" fill="#cbcbcc"/><path d="M418.27,533.53c.33-.02.67.03,1,0l.5.98.5-.98c1.64-.16,3.35.11,5,0,.06,1.6-.62,4.15,1,5-.52,2.7-4.9,1.89-6.99,1l.48,3.01c-3.84-.18-4.6-3.75-4.57-6.92l-1.93-.08c.18-.37-.2-1.39.02-2,2.16,1.22,3.69.08,4.98,0Z" fill="#5e5c5d"/><path d="M271.27,543.53c.95-.07,2.02.04,3,0v6s-1.8-.49-1.8-.49l.57-1.02-3.76-.48,1.99,1.98-5.99,1.02,4.99,2.99c-2.33.02-4.68,0-7,0l2-9c1.96-.84,4.07-.68,6-1Z" fill="#78787a"/><path d="M430.27,423.53h-2c3,4-3.78,8.36,1,8,.3,1.1-.64,2.74-1,3-2.99-2.44-3.69-5.98-6.94-8.56-3.08-2.45-4.89.16-3.04-4.43l11.98,2Z" fill="#d6d7d8"/><path d="M430.27,423.53c.03.99-.01,1.99,0,2.99l2.99-.99c4.63,1.73,7.63,1.58,6.93,7.96l-2.77.17-.18,2.29-1.98-1.42c-.3-1.44-2.84-2.31,1.04-3.51l-1.54-3.49c-1.65,2.65-2.34,3.7-5.49,4-4.78.36,2-4-1-7.99h2Z" fill="#acabad"/><path d="M292.27,557.53c-.39-.97,1.09-3.41-1.99-3.01-.33-1.53,1.64-1.23,2.36-.86,2.41,1.26,2.38,4.94,4.62,5.86l-2-4.47c.54-.86,2.22-2.16,3-1.52.34.28-.78,2.42.99,1.99l1-4.99c.97,4.66.97,8.33,0,12.99-1.73.44-.48-1.95-1.49-2.02-1.4-.1-1.97.97-2.5,1.03-1.3.14-2.69-.08-4-.01,3.01-3.26.94-2.66,0-4.99Z" fill="#5e5c5d"/><path d="M409.27,530.53c-.28-.06-3.39,1.41-4.99-.01l1.99-1.97c-2.75-.98-7.13-1.89-8.19-4.77l-1.8.77-.99-4.52,12,2.99-1.01,4.52c1.26-1,2.51.05,2.99,0v3Z" fill="#373738"/><path d="M225.27,461.53c2.53,3.7-3.16,2.47-5,3.01l3.97.98,1.04,5.5-4.01-3.48c.2,2.7.23,5.59,3,6.5-3.88,1.44-3.14,3.83-3.02,7.5l-.97-9.3-3.08-3.17,1.05-6.53c2.34-.21,4.83.51,7-1Z" fill="#373738"/><path d="M317.27,555.53c.33,1.44-.48,2.13-1.07,3.21-2.77,5.12-5.07.53-9.47.67-2.36.07-.48,2.94-3.45,2.11l1.05-6.96c4.65.67,8.13,2.28,12.94.97Z" fill="#9a999b"/><path d="M274.27,543.53c.67-.02,2.71-1.65,5,.02.77,4.06-2.71-.11-3,1.49-.42,2.34,2.13,1.46,2.99,2.98-1.49,4.37-3.67,3.38-6.21,4.6-1.83,1.76-.26,2.56-2.77.91l-4.99-2.99,5.99-1.02-1.99-1.98,3.76.48-.57,1.02,1.8.49v-6ZM272.77,550.53v1c.65-.33.65-.67,0-1Z" fill="#373738"/><path d="M293.27,421.53l2.99,1.99c-5.18.41-10.13,5.94-14.7,5.77-2.44.56-9.98,7.05-11.28,3.25,7.82-3.23,15.54-7.03,22.99-11.01Z" fill="#bababb"/><path d="M296.27,529.53c.24.1.66.7,1,1,.33,3.95.15,2.46-2.42,3.03-3.64.81-7.4.91-11,1.85-3.87-4.08-1.25-3.14.42-3.89v1.99c2.74.51,2.01-3.37,6-3.01l-1-.99c2.53-.3,3.08-1.69,7,0Z" fill="#acabad"/><path d="M336.27,422.53c4.84,1.21,1.55.63,4,3,.48,1.27-.87,2.42-1,3-2.85-.67-1.67,1.53-2,2-1.25,1.79-1.37,2.49-4,2-3.55-1.87-3.66.08-5-5,2.96-3.51,5.71-.67,7.99,2v-7Z" fill="#78787a"/><path d="M330.27,554.52l-.14,6.86-5.61.86c-5.4-5.74-1.5-8.92,5.75-7.72Z" fill="#9a999b"/><path d="M417.27,412.53h2.01s-1.02,1.99-1.02,1.99l13.01-.99c-.17.47-4.46,5.21-5.55,5.02l-11.45-2.02c-.09-.54-1.39-1.78-1-1.99,2.16.07,4.48.78,4-2.01Z" fill="#78787a"/><path d="M250.27,536.53c1.38-1.51.25-4.19,6.01-3,.46-2.47-2.46-5.79.98-7l.98,13.97c-1.8-.26-2.55.25-3.97,1.03l-.51-3.01-1.98,2-1.5-4Z" fill="#9a999b"/><path d="M348.26,552.53c1.51,8.34,4.93,16.35,4,25-4.56-3.28-2.71-17.67-5.93-23.58l1.93-1.42Z" fill="#acabad"/><path d="M308.27,352.53c.45.59,3.09,4.12,4,2.99l-.99-6.99,2.98,1.06c-1.08,2.8-.65,4.5,1.01,6.94-1.23.57-2.39,1.53-2,3-3.95-6.06-5.48-1.09-11-2.01v-3.99s6-1,6-1ZM303.77,355.53v1c.65-.33.65-.67,0-1Z" fill="#acabad"/><path d="M412.27,437.53c.39-1.98,1.18-3.91,1.01-5.99l1,1.99,1-3c3.65,1.04,1.15,7.26,5.99,6-.24,1.14.34,2.7-.09,3.94-.57.36-1.66-.1-1.91.06l-4.97-2.98-2.03,6.98h-1c-.38-2.45.54-4.68,1-7Z" fill="#5e5c5d"/><path d="M371.9,507.91c1.71,1.05,3.7,4.96,6.03,5.94l4.33,8.67c-1.93,2.07-13.2-13.71-13.97-15.51.83-.36,2.9.46,3.61.89Z" fill="#78787a"/><path d="M422.27,526.53c.86,1.45,2.38,3.47,4,4v2c-1.8,2.09-5.43.52-8,1-.3-1.01-1.19-.85-2-1-1.01-1.31-1.02-2.67,0-4,.91.42,5.83,3.17,5.99,1.01l-7.5-4.99c2.23,1.82,4.86,1.71,7.51,1.98Z" fill="#acabad"/><path d="M343.27,418.53c4.28-4.66,9.09.72,12,4-2.47,0-6.83-.35-9,1,.2-2.63-1.74-2.97-3.96-3.07l.96-1.93Z" fill="#9a999b"/><path d="M258.27,547.53l-.98.5.98.5c0,.08.86.29.8.52-2.75,2.68-11.49,5.64-13.8,1.49,3.95,1.74,11.96-10.76,13-3.01Z" fill="#5e5c5d"/><path d="M311.27,386.53l3.54,2,.96-2.02c.35.17.36.98.5,1.02v3s6,0,6,0c1.25,1.71.65,3.13,0,5-4.49-1.54-9.61-5.47-13-6,.57-.89,1.69-2.08,2-3Z" fill="#9a999b"/><path d="M292.27,557.53c.94,2.33,3.01,1.73,0,4.99,1.31-.07,2.7.15,4,.01-6.71,3.09-12.08.81-10.99-7l6.99,2Z" fill="#9a999b"/><path d="M301.27,403.53c2.38-4.42,1.6-.04,2.59,0h6.41c.15.15-.7,1.6-1,2s-1.3.6-1.7,1.29c-1.48,2.56.5,4.61-5.59,6.08-1.29.31-1.63-.39-1.71-.37l3.99-4.51c-2.79-1.4-2.85-1.46-2.99-4.49Z" fill="#9a999b"/><path d="M364.27,528.53l-1.01,4.99,5,1.02-3.01.99c1.02,2.12.36,2.59.01,4-1.58-.98-3.7-.45-5-2l.78-.61c-.25-3.19-2.12-6.09-1.77-9.39,1.62,1.22,3.57.64,4.99,1Z" fill="#78787a"/><path d="M266.27,383.53c.1,0,.25.68.54.9l.47-2.9c.89-.02,1.45.92,1.87,1.62,3.42,5.6-4.13,4.24,1.12,7.38-.17.14.52,2.68-2.82,2.14l-.18,1.86c-1.26.45-3.11,3.09-6,1.99l5.09-3.63c-.75-1.56-.73-7.74-1.09-8.36-.19-.59.58-1.03,1-1ZM267.77,385.53v1c.65-.33.65-.67,0-1Z" fill="#5e5c5d"/><path d="M370.27,372.53c.12,3.69.21,7.29-4,5v-3s-3.99.99-3.99.99c-.07-1.65.08-3.34,0-5,3.74-1.39,5.85-1.71,8,2Z" fill="#9a999b"/><path d="M369.27,565.52c-2.75.67-1.74-1.69-3.64-2.82-1.06-.63-4.09-.92-4.34-1.25s.25-6.25-1.01-7.92c6.09,1.38,8.29,6.3,8.99,11.99Z" fill="#cbcbcc"/><path d="M301.27,402.53c-5.06-6.76,1.54-6.67,7.23-5.72l6.77,3.72c-.1-.01-1.24,1.61-1.88.93-.51-.54.6-2.34-1.11-1.92l-.42,1.9c-2.23-1.13-4.31-.12-5.08-2.91l-3.5,1.99-.99-1.99c-.09,1.36-.94,2.64-1.01,3.99Z" fill="#9a999b"/><path d="M277.27,535.53l-3.89-.1-2.11-7.9c5.07-.79,7.51-.4,7.08,5.58-.1,1.39-.13,1.5-1.08,2.42Z" fill="#5e5c5d"/><path d="M355.27,422.53c.33,0,.67,0,1,0l.02,4c.62.2,1.56-.17,1.98,0-1.58,2.53-1.15,6.6-4,8-.92-5.74-2.61-6.95-5-12,1.93-.02,4.33.01,6,0Z" fill="#d6d7d8"/><path d="M355.27,388.53c-.78-.9-4.72-3.88-4.82-4.18-.64-1.96,2.03-3.67,4.56-2.49.23.11.25,2.7,3.77,1.69,1.28-.37-.83-3.96,2.49-3.01-1.45,3.49-.76,5.03-2,8.99-.72.23-3.3-.78-4-1ZM357.77,385.53v1c.65-.33.65-.67,0-1Z" fill="#4a4a4d"/><path d="M249.27,322.53c1.98.09,1.65.64,5,0,.37,2.41-.53,3.81-2.98,4.05l1.98,3.95c-2.21,3.34-2.94-3.01-7-3,.13-1.65-.09-3.35,0-5,.9.14,2.02-.05,3,0Z" fill="#5e5c5d"/><path d="M390.16,545.61c2.66,4.33,4.14,5.3.53,9.97l-3.26-1.21c-1.05-1.75,1.61-6.37-2.14-5.87l4.88-2.9Z" fill="#373738"/><path d="M261.27,523.53c-.67.22-1.51,1.61-2.99,1l-.88-4.84,4.38-3.14-.5,3.98c4.02-2.32,5.24.85,9.46.06l1.02-3.06,3.5,4c-3.55-1.01-8.35.94-11,1-.18,0-.5-1.77-2.99-.99v1.99Z" fill="#bababb"/><path d="M227.27,319.53l4-1v2c-3.95,6.58-6.86,11.75-6,19l-3,2c-.92-7.68,5.73-13.9,6-21l-1-1Z" fill="#acabad"/><path d="M360.26,582.53c-4.48-3.37-4.12-20.01-4.98-25.99,1.84,6.3,4.75,19.49,4.98,25.99Z" fill="#acabad"/><path d="M370.27,372.53c-2.15-3.71-4.26-3.39-8-2-.09-2.27.03-4.72,0-7,.11.19,3.21.99,3.99,2l1.01-3c1.28,4.2,3.2,5.54,3,10Z" fill="#cbcbcc"/><path d="M267.27,484.53c.03,1.71.57,2.16-1.41,1.92-5.26-.64-10.47-2.16-15.84-2.18l-12.75-4.73c9.91,2.06,19.79,4.63,29.99,5Z" fill="#bababb"/><path d="M409.48,512.33c-.11-.09-1.14-2.31-.72-2.78,7.82,2.2,15.49,5.3,22.49,9.49-3.99-1.44-19.33-4.83-21.77-6.71Z" fill="#bababb"/><path d="M336.27,573.53c-5.51.02-12.48.61-9.99-7,4.29,1.12,2.94,4.66,5.99,5,3.22.36,7.41-.76,10,2-2,0-4,0-6,0Z" fill="#acabad"/><path d="M363.27,433.53l-3,2.01-.99-3-3.49,1.98.49,2.01c-2.82.35-1.72-.2-2.01-1.99,2.85-1.4,2.42-5.47,4-8,3.58,1.44,3.93,3.16,5,7Z" fill="#373738"/><path d="M362.27,386.53c-.27,4.14-.08,8.84,0,13l-3.05-.66c-1.02-4.03-.09-9.78,1.05-13.34l2,1Z" fill="#373738"/><path d="M333.27,416.53c4.04,1.51,6.64-.89,10,2l-.96,1.93c2.22.1,4.16.44,3.96,3.07-.8,0-12.27-3.8-12.81-4.23-.48-.38-.09-1.71-.19-1.77v-1Z" fill="#d6d7d8"/><path d="M343.27,349.53c.29,1.96.14,5.43,0,7.52s.8,2.89-2,2.47c1.45-2.5.94-13.5-3-12.99-.31-.38.3-2.46-2-2v-1.99s4-2.01,4-2.01c.49,2.29,2.79,7.59,3,9Z" fill="#9a999b"/><path d="M215.27,323.53c.61-1.76,3.63-3.2,3.01-5.99h.97c-.49,3.34,3.51,1.73,6.01,1.99.05.32-.02.67,0,1l1,1v1c-4.25.06-3.3,6.14-5.99,6.99l.99-5.99h-6Z" fill="#acabad"/><path d="M256.27,462.53c2.88,4.95-19.02.16-21.99.99-.63-4.21,3.45-.99,4.49-.99h17.5Z" fill="#9a999b"/><path d="M295.27,376.53c1.53,3.23,1.21,7.96,5,9.48l-3,3.52c-.67,0-1.33-.02-2,0l-1-13h1Z" fill="#4a4a4d"/><path d="M415.27,538.53c-2.68,1.03-5.13,1.26-6.3-1.7l-6.69-2.31c-1.22-4.95,9.09-.66,9.02,3,.64.58,1.72-1.46,1.98-1.99l1.93.08c.4.85-.16,2.35.07,2.92Z" fill="#4a4a4d"/><path d="M250.27,536.53l1.5,4,1.98-2,.51,3.01c-7.47,6.65-11.03.53-4-5Z" fill="#78787a"/><path d="M234.27,281.53h4c-3.58,6-10.22,8.85-12,16-.26.05-.47.66-.87.75-5.84,1.27,1.95-4.89,2.36-5.78,1.1-3.72,3.04-8.05,6.51-10.97Z" fill="#cbcbcc"/><path d="M263.27,371.53c.31-.08.68.07,1,0-.6,4.29.83,8,2,12-.42-.03-1.19.41-1,1-4.65.03-1.25-8.04-2.01-10.99-5.34-.16-7.96,3.77-11.99,5.99.23-.45-.34-1.97.46-3,2.84-1.77,7.96-4.45,11.54-5Z" fill="#4a4a4d"/><path d="M296.27,529.53c3.23-2.52,3.53-3.61,3.01-8l1,4.99,2.98-2,.99,3.51-2.9-.49-1.09,12.98-1.18-8.35c-.35-1.24-1.28-1.17-1.81-1.64-.34-.3-.76-.9-1-1Z" fill="#5e5c5d"/><path d="M429.27,431.53c3.15-.3,3.85-1.34,5.49-4l1.54,3.49c-4.49,1.34-.11,2.43-1.04,5.49-1.35.27-2.67.66-4,1.01-.12,2.61-1.98,1.76-2.02,3.99-3.36-1.19-1-2.64-.98-2.99.91-.61,1.97-.72,3-1,.09-2.04.31-4.28-2-5v-1Z" fill="#9a999b"/><path d="M294.27,517.53l-6.73,2.8c-3.37.49-5.41-3.25-6.77,3.21l-1.5-6.01h15Z" fill="#bababb"/><path d="M255.26,514.52l-4.08-1.64c1.27-4.7,2.92-8.21,2.09-13.35,3.69,3.29.55,10.34,1.98,14.99Z" fill="#4a4a4d"/><path d="M359.27,360.53c3.74-.16,3.01-.39,3,3v2l-7.99,4.01-1.01-4,4.99,2,1.01-7.01Z" fill="#5e5c5d"/><path d="M416.27,528.53c-1.02,1.33-1.01,2.69,0,4-2.72-.52-4.89-1.58-7-2v-3c2.1-.9,6.01-2.08,7,1Z" fill="#9a999b"/><path d="M376.26,416.54l.46,1.81c2.01.54,15.24-4.06,11.55.16-3.13-.49-12.28,3.97-13.95,1.95l-.05-3.93h1.99Z" fill="#4a4a4d"/><path d="M389.27,438.53c3.64-1.37,6.04,12.41,2,13-1.47-1.32-1.57-10.08-2-13ZM392.26,448.52v-3.99h-.98v3.99h.98Z" fill="#9a999b"/><path d="M362.27,484.53l1,6c-.42-1.06-1.22-4-1.57-4.07l-16.42-.94c-.24-1.74,2.27-.94,3.48-.99,2.24-.09,12.97.41,13.51,0Z" fill="#78787a"/><path d="M339.27,431.53c.57.27,1.12,1.04,2,1-.15.53.1,1.37,0,2-1.76,1.83-5.22,1.98-7,3l.85-3.89c-.73-.19-1.26-.8-1.85-1.11,2.63.49,2.75-.21,4-2,.46.84,1.4.71,2,1Z" fill="#373738"/><path d="M242.27,530.53c-1.9,5.96.51,14.23-3.99,18.99,2.5-3.63-.53-20.79,3.99-18.99Z" fill="#4a4a4d"/><path d="M318.26,432.52c-3.71-.24-7.98-1.94-8.99-5.99,4.3.56,8.61.28,8.99,5.99Z" fill="#373738"/><path d="M371.26,585.52l-6.99-17.99c3.76-1.75,7.5,15.4,6.99,17.99Z" fill="#cbcbcc"/><path d="M365.27,541.53c7.62-.99,3.48-2.98,5.99-2.99l1.02,2.98-2.98.52-.02,4.49c-4.45-.51-3.82-2.51-7-5,.96-.11,2.09.16,3,0Z" fill="#78787a"/><path d="M318.27,525.53c.49,1.75-.37,4.95.02,6.97l1.95-.51-.86,2.35,2.89,1.7-.02,1.47c-2.36-.41-1.68,1.63-1.98,2.02s-1.49.62-2,1c.29-4.67-2.85-11.08,0-15Z" fill="#9a999b"/><path d="M358.27,534.53c4.41,2.61-1.72,2.74,7,5-.14.56.09,1.36,0,2-.91.16-2.04-.11-3,0-2.49-1.95-4.13-1.7-4.81-2.24-.47-.37.27-3.35-2.17-2.78.19-1.84,2.02-1.53,2.99-1.98Z" fill="#4a4a4d"/><path d="M238.27,273.53c.76-.75,5.69-4.31,5.99-4,.3,3.19-4.41,4.06-5.97,6.5.49.83,1.3,1.06,1.98,1.5-4.23,1.27-5.21,3.46-8,6-.32-4.31,5.29-6.42,6-10Z" fill="#dedede"/><path d="M212.27,331.53c.94,2.49.23,5.81-.04,8.48-.13,1.31.95,4.22-1.45,3.52-1.82-.53.12-10.23.49-12.01h1Z" fill="#5e5c5d"/><path d="M380.27,599.52c-2.99.53-1.57-.81-2.1-2.34-1.49-4.38-2.57-9.01-2.89-13.64,3.85,3.15,2.97,11.36,4.99,15.99Z" fill="#78787a"/><path d="M391.27,590.53c-3.53-.09-4.11-4.75-5-7l1.99-3.99c.76,3.19,1.81,8.08,3.01,10.99Z" fill="#4a4a4d"/><path d="M278.27,389.53l1,1c-2.32.43-9.25,3.02-12,4l.18-1.86c3.34.53,2.66-2,2.82-2.14,1.81-.18,4.09.11,6.01,0l-1.02-1.98c1.37-.56,2.52,1,3.01.99Z" fill="#9a999b"/><path d="M317.27,530.53c-3.18.56-1.76-1.61-1.97-3.49-.38-3.49-.79-7.01-1.02-10.51,3.5,1.29.2,7.98,3.99,9-1.52.8-1.07,3.43-1,5Z" fill="#4a4a4d"/><path d="M343.27,589.53c-.5,1.99,1.3,12.48-.99,11.99l.99-23.99c.29,3.78.03,8.13,0,12Z" fill="#161515"/><path d="M278.27,496.54l-1.33,1.84c-3.77-1.78-9.19-2.13-11.67-5.84l13,4Z" fill="#78787a"/><path d="M428.27,532.53v1l-.98.5c1.03,1.27,3.42.15,4.98.5,0,.33.01.67,0,1-2.01.96-4.01,2-6,3-1.62-.85-.94-3.4-1-5,.95-1.24,1.55-1.01,3-1Z" fill="#4a4a4d"/><path d="M368.27,404.53h1c-.1.37.84,5.34-1.51,7.01-2.96.8-2.7-7.78.51-7.01Z" fill="#373738"/><path d="M320.27,539.53v8.99c-4.67.22-1.95-7.03-2-7.99.51-.38,1.71-.63,2-1Z" fill="#373738"/><path d="M363.27,402.53l-1-1c0-1,0-2,0-3h1v4Z" fill="#5e5c5d"/><path d="M371.27,401.53c-.46,2.54-1.95,2.83-2,3h-1c-1.39-1.36-3.25-1.13-5-1v-1l2-3c1.75,1.15,2.22,3.02,6,2Z" fill="#5e5c5d"/><path d="M357.27,503.52l-4.07-1.47-7.92-6.52c1.4.51,14.45,5.73,11.99,7.99Z" fill="#78787a"/><path d="M232.05,429.31c-1.14.92-6.92,2.32-8.77,2.21-.48-2.76.56-1.69,2.19-2.26,2.45-.85,5.28-.76,7.32-2.72.47.41-.62,2.68-.74,2.77Z" fill="#373738"/><path d="M455.27,551.53c.03.99-.02,2,0,3l3.99-2c.46.05.89.53,1,1-1.78,2.06-4.54,2.37-7,3,0-.64,0-4.28,0-5.01h2Z" fill="#cbcbcc"/><path d="M422.27,526.53c3.47.35,1.38.5,2.48.79,1.06.11,3.56-.51,4.52,1.21l-1,2c-2.78.59-4.72-1.81-6-4Z" fill="#4a4a4d"/><path d="M283.27,435.54c-3.81,3.61-10.75,6.04-16,6.98,4.07-3.45,10.86-5.28,16-6.98Z" fill="#cbcbcc"/><path d="M302.78,424.55c-1.48,4.18-7.79,5.1-11.49,6.49l11.49-6.49Z" fill="#acabad"/><path d="M361.26,440.54c.18,2-2.37.33-3.82,1.24-.56.35.46,2.18-1.17,1.75l1.49-6.99-.1,3.04,3.58.96Z" fill="#373738"/><path d="M246.27,494.53v-1c5.13.5,2.46-2.82,4.99-2.99l.92,3.52c-.08,1.32-5.13,1.61-5.91.48Z" fill="#242222"/><path d="M342.27,573.53c.21.22.94,1.68,1,2h-7.01s0-2,0-2c2,0,4,0,6,0Z" fill="#161515"/><path d="M431.27,437.53c-1.03.28-2.09.39-3,1,.07-1.29-.19-2.82,0-4,.04-.25,1-.84,1-2,2.31.72,2.09,2.96,2,5Z" fill="#acabad"/><path d="M430.26,442.53c.4,2.64-.41,5-2.98,5.99.41-1.68-.09-6.75,2.98-5.99Z" fill="#9a999b"/><path d="M225.26,433.53c1.67,1.39-4.46,4.58-4.99,3.99l.66-3.01,4.32-.98Z" fill="#373738"/><path d="M343.27,344.53c3.2-.83,1.03,2.9,3,4v2c-.63.13-1.35.75-2,1,.18-2.42-.3-4.69-1-7Z" fill="#5e5c5d"/><path d="M343.27,344.53c-.51-1.96-1.26-5.44-3-6v-1c4.28-3.65,2.54,5.95,3,7Z" fill="#5e5c5d"/><path d="M289.27,529.53l1,.99c-3.99-.36-3.26,3.51-5.99,3.01v-1.99c3.8-1.76,2.44-3.98,4.99-2Z" fill="#78787a"/><path d="M324.27,425.53c4.31-.25,2.82.37,3,4-2.83.74-2.15-1.87-3-4-.76-.13-1.43-.48-2-1l.5-2c1.36.76,1.1,1.96,1.5,3Z" fill="#78787a"/><path d="M405.27,425.53v2c-1.61-.11-3.43.21-5,0v-2c1.65-.12,3.35.13,5,0Z" fill="#d6d7d8"/><path d="M362.27,401.53l1,1v1c-.56.04-2.4,1.78-4,.99.79-1.65.87-3.57,3-2.99Z" fill="#373738"/><path d="M365.27,399.53l-2,3v-4c1.13-.26,1.47.65,2,1Z" fill="#373738"/><path d="M260.27,396.54c.71.54-6.06,5.74-5,1l5-1Z" fill="#5e5c5d"/><path d="M394.27,599.53v-4c1.84.11,2.67,3.89,1.89,4.94-.27.37-1.66-.11-1.89.06v-1Z" fill="#78787a"/><path d="M284.28,435.52c-2.13-1.79,5.29-3.85,5.97-3.51-.74,1.08-4.91,4.4-5.97,3.51Z" fill="#acabad"/><path d="M246.27,330.53l1.99-1c.37,5.73-2.68,2.94-2.99,3,.18-.59,1.01-1.56,1-2Z" fill="#373738"/><path d="M453.27,555.53v1c-1.36.35-11,2.86-11.01,1.5l11.01-2.5Z" fill="#9a999b"/><path d="M251.27,258.53l1.4,2.08-3.4.94c-.91,3.08,1.98.99,1.99,2.98-1.56.3-4.17-.78-4.99,1.01l-3.99-1c.69,2.84-1.04,5.54-4.01,6-.08.65.05,1.34,0,2l-3.98-.03c-.23-.61.15-1.55-.02-1.97,1.29-.13,2.77.19,4,0,.49-3.96,1.94-3.02,2.04-3.66.34-2.19-1.44-2.83-.04-5.34,4.01-.76,7.86.05,11-3Z" fill="#5e5c5d"/><polygon points="364.27 405.53 364.26 407.01 362.76 408.52 360.28 407.02 364.27 405.53" fill="#373738"/><polygon points="329.26 540.54 329.27 541.52 324.28 541.52 324.28 539.53 329.26 540.54" fill="#78787a"/><path d="M239.27,497.53c-2.06,1.38-.87,1.08-4,2v-2c1.27-.17,2.7.12,4,0Z" fill="#78787a"/><polygon points="440.27 560.52 436.28 560.52 436.28 559.54 438.76 557.53 440.27 560.52" fill="#5e5c5d"/><path d="M229.85,514.12c-1.16,1.65-3.47,5.41-5.58,5.4l7.99-10.51-2.42,5.1Z" fill="#d6d7d8"/><path d="M358.27,389.53l-2.98.97c-.23-.57.15-1.77-.02-1.97l3,1Z" fill="#373738"/><path d="M363.27,436.53c.23,1.27,2.95,3.43-1,3-.23-.76-.15-2.88,1-3Z" fill="#373738"/><path d="M465.27,557.53c-.75.14-1.53,1.53-3,.99-.25-.21,1.07-2.03,1-2.99l2.51-.98-.51,2.98Z" fill="#cbcbcc"/><path d="M264.27,522.53c-.79,1.16-2.15.72-3,1v-1.99c2.5-.78,2.82,1,3,.99Z" fill="#9a999b"/><path d="M387.27,433.53h2s0,3,0,3c-3.02.46-1.81-.87-2-3Z" fill="#9a999b"/><path d="M433.27,425.53l-2.99.99c-.08-.65.09-1.36,0-1.99,1.41-.46,2.22.71,3,1Z" fill="#d6d7d8"/><rect x="263.28" y="542.53" width="1.99" height="1.99" transform="translate(-279.95 806.37) rotate(-89.85)" fill="#373738"/><rect x="226.28" y="432.54" width="3.99" height=".98" fill="#373738"/><rect x="309.28" y="431.53" width="1.99" height="1.99" fill="#373738"/><rect x="252.28" y="399.53" width="1.99" height="1.99" fill="#5e5c5d"/><rect x="215.28" y="469.53" width=".98" height="3.99" fill="#373738"/><path d="M360.27,533.53c.24,1.13.84,2.19.78,3.39l-.78.61c-.22-.26-.1-2.65-2-3,.57-.26,1.14-1.03,2-1Z" fill="#bababb"/><path d="M271.27,543.53l.51-2.01h1.48s0,2.01,0,2.01c-.65.05-1.39-.1-2,0Z" fill="#373738"/><path d="M319.27,423.53v1c-1.36,1.87-2.37,1.25-2-1h2Z" fill="#78787a"/><rect x="207.28" y="339.53" width="1.99" height="1.99" fill="#5e5c5d"/><path d="M426.26,563.53c1.39.63-4.35,2.76-5.99,1.98v-.98s5.99-1,5.99-1Z" fill="#5e5c5d"/><path d="M243.26,528.52h-.98c-.25-1.83-.06-2.92,1.5-3.97l-.52,3.97Z" fill="#4a4a4d"/><rect x="358.28" y="502.53" width=".98" height="1.99" fill="#78787a"/><path d="M220.28,523.52c-.84-.4,2.9-2.74,3.97-2.5l-2.49,2.5h-1.48Z" fill="#d6d7d8"/><rect x="260.28" y="549.53" width=".98" height="1.99" fill="#373738"/><rect x="259.28" y="552.53" width=".98" height="1.99" fill="#373738"/><rect x="352.28" y="355.53" width=".98" height="1.99" fill="#373738"/><rect x="433.28" y="560.54" width="1.99" height=".98" fill="#5e5c5d"/><rect x="430.28" y="561.54" width="1.99" height=".98" fill="#5e5c5d"/><rect x="427.28" y="562.54" width="1.99" height=".98" fill="#5e5c5d"/><rect x="355.28" y="378.54" width="1.99" height=".98" fill="#4a4a4d"/><rect x="374.28" y="580.53" width=".98" height="1.99" fill="#78787a"/><rect x="262.28" y="443.54" width="1.99" height=".98" fill="#cbcbcc"/><path d="M254.27,496.53c0,.15,1.44,1.29.99,1.99l-.99-1.99Z" fill="#4a4a4d"/><path d="M410.77,522.53c.65.33.65.67,0,1v-1Z" fill="#acabad"/><path d="M412.77,523.53c.65.33.65.67,0,1v-1Z" fill="#acabad"/><path d="M256.77,357.53c.65.33.65.67,0,1v-1Z" fill="#373738"/><path d="M354.77,356.53c.65.33.65.67,0,1v-1Z" fill="#373738"/><path d="M316.77,538.53c.65.33.65.67,0,1v-1Z" fill="#373738"/><path d="M258.27,548.53l-.98-.5.98-.5c.09.23-.02.65,0,1Z" fill="#373738"/><path d="M462.27,554.53c-.3-.37-.66-.68-1-1l.49-.98c.86.76,2.33,1.78.51,1.98Z" fill="#cbcbcc"/><path d="M304.77,423.53c.65.33.65.67,0,1v-1Z" fill="#acabad"/><path d="M373.77,553.53c.65.33.65.67,0,1v-1Z" fill="#4a4a4d"/><path d="M371.77,554.53c.65.33.65.67,0,1v-1Z" fill="#4a4a4d"/><path d="M398.77,422.53c.65.33.65.67,0,1v-1Z" fill="#cbcbcc"/><path d="M226.77,473.53c.65.33.65.67,0,1v-1Z" fill="#373738"/><path d="M390.77,592.53c.65.33.65.67,0,1v-1Z" fill="#4a4a4d"/><path d="M331.77,393.53c.65.33.65.67,0,1v-1Z" fill="#373738"/><path d="M265.77,442.53c.65.33.65.67,0,1v-1Z" fill="#cbcbcc"/><path d="M370.27,376.53h1.99c.24,2.03,1.55,3.33,1.04,5.35l-2,.67-.02,1.98,1.97-.53c-2.42,3.5.96,7.56-.07,11.48l-2.91.06c.92,1.73,1.02,3.07,1.01,4.99l-3.07-4.99-2.91.5,2.98-3c-6.53-6.38-1.54-4.54-.24-5.68.33-.29,1.41-4.63,1.24-4.82-3.05-.78-1.05,1.99-3.49,2s-1.57-1.55-2.5-3c.27-1.52.54-2.27,0-4,.98.05,2.02-.1,3,0,1.32.13,2.72,2.23,4-1ZM369.76,390.55c-.99.7.54,1.37,1.02,1.96.99-.66-.47-1.32-1.02-1.96ZM370.77,393.53v1c.65-.33.65-.67,0-1Z" fill="#5e5c5d"/><path d="M296.27,223.53c.27,3.8-2.2,7.14-5.99,8.01l3.99,1c-2.17,5.08-9.19,8.15-13,12.5l.02,1.47c2.05-.05,1.92.32,1.98,2.03h-1.99c-.23,6.4,7.32-3.07,10.48-2.01l-1.48,3,5.98,1.02c.26-4.27,4.2-4.91,6.02-9.01l6.99-3.51-3.97-.98c1.61-1.07,2.02-3.25,2.98-4.51.22-.29,3.93-4.57,4.49-5.09.26-.24,5.84-2.39,6.51-2.91.15,4.15-.98,3.68-1.97,4.74-6.97,16.53-15.62,23.22-31.04,30.26-.4.13-7.94,1.1-8.36,1.04-.28-.04-1.49-3.56-4.64-2.04,2.45-3.01,3.34-.44,4-1.01-2.07-4.77-3.26-9.75-3-14.99,1.33,0,2.67.01,3.99,0v-1.48s-.99-.51-.99-.51c.53-.55,2.01-1.88,2.52-2.01.39-.1,1.61,6.33,3.48-1.99.36-2.21-.14-1.54,0-3-.02-.49,1.11-.56,0-3,1.76-.69,2.2-2.22,2-4,4.41.26,6.68-3.17,11-3Z" fill="#d6d7d8"/><path d="M341.27,211.53c3.4-.27,6.35,2.69,10,3v3c.73,0,3.32,0,4,0-.5,1.03-2.64,4.36-2,4.99,8.45-.63,11.22,7.38,20,6.01,2.1,3.13,6.33,5.36,7,7,.15.37-1.55,1.39-.51,2l1.01.97,1.5-.97c.89,3.93,9.83,11.17,15,11,3.91,3.32,8.37,8.84,14,8l1,.99c-6.59.97-10.67-2.29-17-3.99-4.36-7.88-16.96-11.08-24.17-16.11-7.4-4.22-12.42-9.95-20.83-10.89.74-3.33-.62-2.45-1.96-3.51-1.82-1.44-5.93-4.47-8.04-4.49-1.88-2.72-4.78-1.75-5-5,2.67.58,3.15-1.42,6-2ZM378.26,238.52v-1.99h-.98v1.99h.98Z" fill="#dedede"/><path d="M321.27,280.53c-1.58-15.98-12.75-15.88-8.99-23.99,2.25-1.74,4.4,5.64,4,6.99l4.47-2.01c2.59.6-1.42,4.01,4.6,1.6,3.38-1.88,3.39.42,2.42,3.17l-1.5-.76c.59,2.54.5,7.63,4.49,7.01-1.02-2.59-1.19-5.23-1.49-8.01-.18-1.62,2.11-4.02-3.01-4.49v1.49c-10.64-1.97,1.39-4.54,5.01-3.99.38,5.32,2.01,8.8,6,4,.39-.18,1.59.35,2.27-.03.88-.49.68-2.03,1.25-2.02,4.76.13,5.11,5.49,4.47,9.04-2.07-.03-3.94-.81-5.99-1v-2c-3.95-.89-2.63,1.64-3,2s-3.14-.81-2.01,4l-1.98-1.99c-1.56,14.46,4.87,7.41,3.98,14.99-2.59.84-2.5-2.97-3.58-3.03-.6-.03-3.83.85-5.41,1.03-.12-.61.17-1.55,0-2-.28-.73-1.5-2.46-1.99-2v2c-2.59.58-2.51-.08-4.01,0Z" fill="#161515"/><path d="M347.27,200.53c5.44-2.51,10.99-4.51,17-5.01.31-.3-4.38-4.42-.53-3.98,4.21.63,19.49,14.49,17.53,19.99h-1c-1.03-1.5-4.76-3.52-5.01-5.99l-1.63,3.84-13.93.11c-.93-.13-1.1.32-1.43,1.03l-5.02-3.53v-1.98s2.01-.51,2.01-.51l-1.49-1.97c-2.58,3.49-7.1.88-10.5,2.98-.67-.85-1.49-1.01-1-2.99,2.42.6,3.73-1.42,5-2.01Z" fill="#d6d7d8"/><path d="M346.27,179.53c1.75.91,3.89,2.12,5,3,.6,4.8-4.2-2.47-6-.99l3,3.99c-3.98-.2-12.69,2.9-13.03,7.48.05,1.08,1.68.27,2.03.52.69.48,1.09,2.35,3,2-.42.46-.61,1.42-1,2-1.14.07-5.59.22-6,0-.08-.42-1.9-4.71-5-4,.77,3.9-2.7,2.22-5,2,.02-.53-2.12-1.21-.06-4.55l12.06-10.45c3.48-.11,7.21-1.75,11-1Z" fill="#dedede"/><path d="M261.27,273.53c-.79,2.64,1.82,1.8,2,2,1.59,5.74,5.77,3.35,9,2,3.59-.28,11.76-.56,15,0,2.62.45,6.41,3.93,10,3.01.71,4.26-4.45,1.17-7,.99-13.7-3.41-23.6,3.66-37,4v-1c1.8-.92,7.42-2.27,8-3.5l-.65-2.5c-1.49-.14-2.89-.69-4.34-.99v-2c1.26-1.71,3.46-1.5,5-2Z" fill="#dedede"/><path d="M314.27,291.53c.66.04,1.34-.02,2,0,1.83,3.72,5.44,4.64,9,6,1.39,5.14.87,1.56,3.06,3.65,2.66,2.55,2.07,7.35,2.94,9.35-.6-.16-.99.53-1,1-.93-1.29-3.17-1.45-4-2-1.19-.79-2-2.21-3-3-.3-1.94-.28-3.32,1.99-3.01v-.98s-5.99.99-5.99.99c-2.63-2.04.75-1.25-3-3-.64-.29-1.14-.68-2-1-.33-1.09-1.16-1.44-2-2l4-1.99c-3.46.97-4.59-3.48-6-4.01v-1c1.83-.2,1.65.96,4,1ZM320.27,297.54l-2.99-1.01v2.99s1.47,0,1.47,0l1.51-1.98Z" fill="#dedede"/><path d="M381.27,207.53c.23-1.92-4.92-9.61-2.02-8.99-.4,2.56,2.15,1.59,3.07,2.64,1.25,1.44,3.85,8.8,4.22,9.13.46.41,1.96-.03,2.47.46.62.59-.37,3.41,3.25,3.76,2.39.23,1.83-.75,3-2,.61.7,1.4,1.3,2,2v1c-.63,0-2.34,0-2.99,0-.4,2.45.82,4,2.99,5,.02,1.13,0,2.85,0,4-2.05-.91-4.75-.98-6.99-1.01l-1.02-8.99-2.98,4c.88-4.69-2.43-7.73-5.01-11Z" fill="#dedede"/><path d="M350.27,226.53c.32.07.68-.07,1,0,1.26,2.63-2,3.25-1.97,3.47.04.26.96.38.97.53.06,4.19-1.97,2.21-2,5-4.36.02-4.27-5.38-6.66-6.84-1.03-.62-7.14-2.97-8.34-1.16-1.25-1.48-1.18-2.12-.99-4,3.15,2.35,5.07-.87,7.58-1.03,1.97-.13,7.26,3.34,10.41,4.03Z" fill="#bababb"/><path d="M358.27,210.53c.33-.71.5-1.16,1.43-1.03l13.93-.11,1.63-3.84c.45,3.56,5.94,4.45,5.01,7.99-3.3-.04-3.78-2.54-7.58-2.89-.83.02-.21,1.69-.42,1.89-.58.55-4.78.99-6.01,1.01l3.01,3.99c-2.34-.27-13.5-1.63-13-5,2.96.58,1.6-1.14,2-2Z" fill="#9a999b"/><path d="M343.27,177.53c-3.3.38-9.58-.73-10,4-13.31,2.6-8.92,8.58-15,7l.02,1.99c3.38-.4,1.39,1.54-.01,3.01-5.44-.3-4.06-1.94-2-6,4.82-6.13,19.29-9.77,25.51-14.98l1.49,4.98Z" fill="#d6d7d8"/><path d="M332.27,245.53c1.15,1.22,4.23,2.9,6,3,.51,2.31-7.22,5.62-9,6-1.69.17-2.77-.02-4.5-.59-1.27.09-6.07,3.32-6.36-.75l2.04-3.48c5.89,1.17,6.09.09,9.81-4.18h2Z" fill="#161515"/><path d="M351.27,290.53c2.13.08,4.94,1.67,7.47,1.06l1.04-3.08,7.49,2.03c-1.44,6.99-7.21,7.38-13,8.98-.06-.37-1.68-1.45-1-3l3-2-4.99,2.99c-.08-2.33.07-4.67,0-7Z" fill="#d6d7d8"/><path d="M359.27,215.53c-.33,2.8,6.75,5.21,9.01,5.01l-.02,1.99-1.97.49c1.95.79.29,1.6,1.26,3.23.45.69,2.42.95,2.73,2.29-7.7-.48-9.08-6.72-17-6.01-.88-1.57,3.35-5.09,2-6.98.25-.12,3.81-.12,4-.01Z" fill="#78787a"/><path d="M294.27,282.53v3c-5.36-.38-1.75.5-3.67,1-3.49.92-10.24-2.71-14.33,1h-1l-3-4.99c1.2-1.05,15.4,1.53,18-1.01,1.65.2,2.93.84,4,1Z" fill="#232122"/><path d="M348.27,185.53l-3-3.99c1.8-1.48,6.59,5.79,6,.99,1.29,1.35,2.31,3.1,2,5,1.53.97.92,2.38,1,4-3.48.61-10.14,1.45-13,3l-3-1c-.09-3.12,5.24-4.53,7.88-5.14l.12-2.86c.62-.2,5.28.88,6,.99v-.98s-4-.01-4-.01Z" fill="#cbcbcc"/><path d="M350.27,230.53c7.18-.97,5.81,6.62,11,10,1.73,1.53,2.61,4.1,6,4-.09.56,1.53,1.41.51,1.98-3.45-.55-13.43-12.64-12.51-3.98-2.13-1.7-4.57-3.7-7-5-.64-4.93,1.87-2.33,2-7Z" fill="#78787a"/><path d="M294.27,285.53c.98.07,2.04-.12,3,0,.62,1.48,1.66,2.23,3,3l-2,1c-7.32-2.64-14.5.78-22.01,0v-2c4.1-3.71,10.85-.08,14.34-1,1.92-.5-1.7-1.39,3.67-1Z" fill="#161515"/><path d="M386.27,272.53c.37,3.15-4.25,7.25-4.92,8.8-1.52,3.36-4.24,10.76-5.08,14.2l-1.04-9.34,2.04-1.15-2.97-.99c.32-.43.92-1.05.97-1.51,4.75-.65,7.89-5.4,8-10,.99-.06,2.01.07,3,0Z" fill="#232122"/><path d="M339.27,197.53c.41-.02,1.72-1.26,1.99-1,1.21,1.15,1.51,6.1-1.97,4.01.59,5.16-1.92,5.56-6.02,5-1.16-3.72-1.3-4.32,0-8,.41.22,4.86.07,6,0Z" fill="#4a4a4d"/><path d="M348.27,180.53c-1.29-.32-3.02-1.85-4-3,.76-.06,2.08-1.22,4,0-2.76-4.94,6.48-6.85,7.03-1.45.48,4.76-3.08,6.12-7.02,4.46Z" fill="#bababb"/><path d="M343.27,205.53c3.41-2.1,7.93.51,10.5-2.98l1.49,1.97-2.02.51v1.98s5.03,3.53,5.03,3.53c-.4.86.96,2.58-2,2-1.06-.57-6.79-1.71-7.01-2.01l1-2.99c-2.63.94-5.22.26-7-2.01Z" fill="#4a4a4d"/><path d="M390.27,226.53c-.08,1.62-1.05,3.47-1,4.4,2.72,1.07,2.8,5.04,4,7.6l-2.99,1.01c.72-4.24-1.9-2.03-5.01-5.01l.98-.5c-.53-.31-1.32-.71-1.98-.5l-1-2c.6-1.37-.2-1.99,2.51-3l1.48,2c-.31-1.98.71-4.46,3.01-3.99Z" fill="#78787a"/><path d="M275.27,267.53c.65,1.5,2.5.91,4,1,2.5,2.35,7.37,5.17,8,8-3.53,1.24-3.89-1.37-5-2-3.13-1.79-8.87-6.1-12-4-.32-.34-.69-.65-1-1-.82-3.39,3.95-1.67,6-2Z" fill="#5e5c5d"/><path d="M378.27,272.53l1,1c1.05.05,2.66.36,3-1,.32-.05.67.02,1,0-.12,3.35-1.95,7.42-5,9v-3c-2.03,1.12-2.88.17-4,0-.17-3.52-.5-6.51,4-6Z" fill="#5e5c5d"/><path d="M299.27,252.53l-.06,4.94c-4.41-.26-6.88,3.21-10.94,4.06-.32-.46-1.82-.92-2-2,.71-.23,11.07-5.94,13-7ZM295.77,255.53v1c.65-.33.65-.67,0-1Z" fill="#232122"/><path d="M348.27,334.53c0,.61.94.84,1,1,.16.47-.2,1.35.05,1.98l1.94-.97-.99,2.99c2.17-.73,3.56.61,5,1.01-.38.67,1.79,5.32,2,6-8.6-1.36-8.38-5.18-11-11.99.63-.11,1.61.16,2,0Z" fill="#bababb"/><path d="M269.27,269.53c4.03,4.15,6.31,7.06,13,5,1.11.63,1.47,3.24,5,2v1c-3.24-.56-11.41-.28-15,0-2.87-1.26-1.59-3.09-2.11-5.4l-.89-.6c-.33-.01-.67.01-1,0l-.9-1.9c.54-.31,1.73.06,1.9-.1Z" fill="#232122"/><path d="M348.27,235.53c0,.67,0,1.33,0,2,2.43,1.3,4.87,3.3,7,5,.97.78,3.3,1.33,1.5,3-2.02-3.25-8.09-4.08-8.51-7.99-3.38-2.47-10.38-7.1-15-10,1.2-1.81,7.31.54,8.34,1.16,2.39,1.45,2.3,6.86,6.66,6.84Z" fill="#dedede"/><path d="M325.27,209.53c.57.44,1.92,1.21,3,2-.69,2.4-2.41,4.31-1,7-3,.13-4.42-.04-6-2l.11-2.92,2.89-.08c.24-2.41-1.56-.89-1-3.99h1.99Z" fill="#5e5c5d"/><path d="M405.27,244.53c-2.45-3.05-7.27-2.05-8-5.99l9.97,1.02.03,7.96-4-1.99,2-1Z" fill="#bababb"/><path d="M304.27,286.53c.79.25,2.63,1.43,4,2l-1,3c5.67-1.26,3.59,4.61,9,4.02l-4,1.99c-2.51-1.68-6.28-2.6-8-4l1.99-5c-1.84-.38-2.56,1.46-3.99,1,.04-1-.06-2.01,0-3,.59.15,1.47-.17,2,0Z" fill="#cbcbcc"/><polygon points="403.26 206.53 400.63 203.44 395.46 204.36 391.28 198.53 399.28 198.95 403.26 206.53" fill="#cbcbcc"/><path d="M353.27,185.53l5.65,1.49.36,6.51-6,1,1.99-2.48c-.06-.31-.98-.38-1-.52-.12-.94.21-2.21,0-3h2.99s0-.99,0-.99h-3.99c-.2-.52.21-1.57,0-2.01Z" fill="#9a999b"/><path d="M344.27,279.53l1.01-3c1.59-.82,3.17,3.05,3.99,5-1.2,2.73-4.07,2.19-6,4-1.55-2.22-2.36-3.15-1-6h2Z" fill="#161515"/><path d="M323.27,223.53c1.36-.42,2.09-2.49,3.99-2-.04,1.62.23,3.53,2.01,4-.76,1.69-1.55,2.99,0,5-5-2.15-4.03-5.77-9-5-.05-.92.65-1.4,1-2,.63-.11,1.48.16,2,0Z" fill="#161515"/><path d="M322.27,291.53v-3s2,0,2,0c.57,1.43-.98,3.27-1,3.99.49,4.02,2.55,1.38,2,5-3.56-1.36-7.17-2.28-9-6,1.27.05,2.42-.08,4,0l1.49.99.51-.99Z" fill="#161515"/><path d="M401.27,219.53c3.79-7.46,11,7.74,2,5-.44-1.46-1.39-3.23-2-5Z" fill="#acabad"/><path d="M321.27,280.53c1.36.31,3.87.02,6,0,.17.45-.12,1.39,0,2-3.56,2.79-9.59-1.02-14-.01,1.06-2.19,5.91-1.89,8-1.99Z" fill="#cbcbcc"/><path d="M391.27,242.53c.49.17,1.16,1.06,2,1,.93,1.58.97,2.97,3,4v1c-5.09-.69-10.54-5.79-13-9,2.61,1.23,5.28,2.06,8,3Z" fill="#78787a"/><path d="M308.26,257.53c1.73,3.77,1.32,9.14-3.36,5.87-3.99-2.79,2.51-6.49,3.36-5.87Z" fill="#161515"/><path d="M321.27,216.53c.83.5.38,1.17,3,2-.9,2.62-3.24,4.33-4,7h-1c-.09-4.04-1.35-6.03-1-9.99,1.34-.3,1.99.39,3,.99Z" fill="#bababb"/><path d="M397.27,212.53c.97,1.22,2.88,2.24,3.32,3.26.5,3.26,1.51,6.05,2.68,8.74.52,1.72-.88,5.65,2.99,7.51l-3.99,1.49-1-2c.66-.03,1.33.03,1.99,0v-1.48c-1.23-1.27-2.63-2.4-3.99-3.51,3.08.45,1.95-1.13,1.57-3.06-.79-3.79-1.7-7.28-4.57-9.94v-1h1Z" fill="#bababb"/><path d="M396.27,262.53c-1.21,1.3-1.5.89-3,1,.11.61-.09,1.36,0,2l-7.41,1.88-1.58-1.86c4.2.08,1.19-3.86-.99-5.52,1.17-.82,1.92,1.53,2.96,1.96.79.33,1.79-.53,2.74-.19.49.17-.47,2.1,4.29,1.74-.5-2.72-.74-3.54-2-6l3-1c.08,1.21,1.15,4.88,2,6Z" fill="#78787a"/><path d="M397.27,214.53c2.1,2.74,2.88,5.52,3.57,8.94.39,1.93,1.52,3.51-1.57,3.06-.58-.48-.74-1.44-2-2-.04-3.48.28-5.99,0-10Z" fill="#242222"/><path d="M336.27,293.53l.07-1.89,1.91-.11c.48,3.35,2.8,4.78,4.01,8l-3,1c-.32-.78.6-3.02-.5-3.01l-1.49,3c-.08-2.36.38-4.89-1.01-6.99Z" fill="#dedede"/><path d="M375.27,282.53c-4.86.79-10.84.52-16,1.99-.89-1.97,15.57-4.84,16-3.98-.04.65.08,1.34,0,1.99Z" fill="#bababb"/><path d="M317.27,199.53c.12.58-.2,1.71,0,2-1.05.23-1.23-.31-2-1,.1-1.27,1.01-.98,2-1Z" fill="#d6d7d8"/><path d="M319.27,201.53c3.4,3.13,7.23,6.25,11,9,.85.55,3.03.79,3.01,1.5-.27,1.16-2.43.15-3.01.5-4.68-2.24-9.46-6.68-13-11,.64.09,1.35-.06,2,0Z" fill="#d6d7d8"/><path d="M338.27,248.53c.35.02,2.49-1.53,2.99-1,1.66,1.76-1.75,2.26-2.5,2.97-2.7,2.91-5.52,7.45-9.49,7.03v-3c1.78-.38,9.51-3.69,9-6Z" fill="#acabad"/><path d="M333.27,313.53c1.6,3.59,2.28,3.88,3,8-.97-.14-2.15-2.79-3-4-1.17-1.09-4.86-6.15-2-7,.12.28,1.21.89,2,3Z" fill="#cbcbcc"/><path d="M347.27,272.51l-11.99,3.01c-.54-2.85.75-1.61,2.18-2.26,3.31-1.5,6.04-1.53,9.33-2.71l.48,1.97Z" fill="#161515"/><path d="M343.27,177.53c.33-.04.67.03,1,0,.71.58,1.27,1.46,2,2-3.79-.75-7.52.89-11,1-2.51.08-.75.51-2,1,.42-4.73,6.7-3.62,10-4Z" fill="#5e5c5d"/><path d="M329.27,264.53c.3,2.77.47,5.41,1.49,8.01-3.99.62-3.89-4.47-4.49-7.01l1.5.76.49-1.76h1Z" fill="#232122"/><path d="M275.27,252.53c.24,1.16,1.81,3.47,2,4.99-2.03-.3-1.92-1.49-5,2.01-1.97-.53-6.91,1.5-6-2,.66.19,1.74,1.31,1.99,1v-3c1.27.18,2.72-.14,4.02,0l-1.02,1.98h2c-.62-1.61,1.02-4.11,1.01-4.99h1Z" fill="#9a999b"/><path d="M397.27,212.53h-1l-.5-.97c-1.22,1.35-.83,3.32-3.5,2.97l1.01-7c2.43.62,2.86,3.59,3.99,5Z" fill="#9a999b"/><path d="M370.27,187.53c-.59-7.32,15.4,4.08,15.45,7.04.96,2.4-.3,1.7-.45,1.96-2.55-6.36-7.94-9.5-15-9Z" fill="#cbcbcc"/><path d="M365.27,273.53c1.13.53,4.3,2.2,6,3,.84.36,1.54,1.45,3,1v1c-1.35.56-10.56-2.66-12-3v-2c.91.15,2.3-.23,3,0Z" fill="#cbcbcc"/><path d="M362.27,271.53c-.09.62,0,1.35,0,2-.58-.09-1.35-.79-2-1,.64-.45,1.08-1.07,2-1Z" fill="#cbcbcc"/><path d="M327.27,292.53c-.27-2.01-.31-7.16,3.01-5.49-.71,2.01-.03,7.31-3.01,6.49v-1Z" fill="#161515"/><polygon points="349.27 256.52 346.28 256.53 347.28 248.53 349.27 256.52" fill="#5e5c5d"/><path d="M366.27,309.53c-1.03-2.51-1.42-4.02-1-7.01l3,.02v4.99c-.54.92-.85,1.67-2,2Z" fill="#161515"/><path d="M384.27,194.53c2.4,2.02.08,1.78-.06,3.98-5.42-.31-5.35-3.89.06-3.98Z" fill="#232122"/><path d="M401.27,231.53l1,2-2.02,2.99h-1.98s0-5,0-5c.99-.05,2,.06,3,0Z" fill="#242222"/><path d="M338.27,321.53c-.5-3.07,2.58-1.91,5-1.99l-1,1.99c-1.85.04-3.35.99-3,3-.02-.16-1.9-1.33-1-3Z" fill="#232122"/><path d="M336.27,293.53c.55.93.88,1.93,1,3h-5.01s0-3,0-3h4.01Z" fill="#161515"/><path d="M348.27,332.53c-1.33-.22-2.99.15-4.4.02l-.62-2.52,2.54-1.51,2.48,2.01c.14.56-.09,1.36,0,2Z" fill="#232122"/><path d="M347.27,286.53c-.1.63.16,1.47,0,2,1.9-.03,3.27.63,3.01-1.99h.98c.05,1.32-.03,2.66.01,3.99-1.76-.06-3.27.94-4.99,1-.39-1.34.74-2.15.99-3-1.97.1-3.56.51-3-2h3Z" fill="#161515"/><path d="M387.27,228.53l-.99-3.99h3.99c0,.66.03,1.33,0,1.99-1.46-.41-2.43.8-3,2Z" fill="#232122"/><path d="M302.27,286.53c-.06.99.04,2,0,3-1.84-.76-4.17-1.96-5-4,1.76.22,3.29.57,5,1Z" fill="#bababb"/><path d="M327.27,292.53v1c-.31.39.58,2.67-2,2-.05-.18-2.05-.58-2-3h4Z" fill="#232122"/><path d="M371.27,276.53c-.74-.32-1.4-.75-2-1v-2.99c1.45-.3,2.19.39,2.95,1.59l-.95,2.41Z" fill="#232122"/><path d="M343.27,302.53l-2,1c-.13-.39-1.48-1.72-2-3l3-1c.38,1.02.88,1.82,1,3Z" fill="#161515"/><path d="M337.27,261.53c-.73.35-2.99,4.39-5,1l4.48-2.01.52,1.01Z" fill="#232122"/><path d="M336.27,253.53c1.58-1.58,4.59,1.4,2.99,2.99s-4.57-1.42-2.99-2.99Z" fill="#161515"/><path d="M335.27,209.53c.08-.55-.33-1.37.15-1.82l3.84-1.18v3c-.72,0-3.31,0-3.99,0Z" fill="#232122"/><path d="M343.27,302.53c.17,1.62-.11,3.36,0,5h-1.99c.54-1.8.58-2.26,0-4l2-1Z" fill="#232122"/><path d="M351.27,297.53l4.99-2.99-3,2c-.65,2.3,1.5,2.45,1,4-.74-.25-2.37.67-2.99,1-.06-1.33.04-2.67-.01-4Z" fill="#9a999b"/><path d="M373.27,364.52l-3.99-1.01v-1.98c2.4-.38,4.24.47,3.99,2.99Z" fill="#232122"/><path d="M330.27,212.53c-.19.12.49,3.08-3,2,.29-1.02.42-2.08,1-3,.4.3,1.56.26,2,1Z" fill="#232122"/><path d="M329.27,254.53v3c-.56.15-1.39-.13-2,0l-1-3c.94-.15,2.13.18,3,0Z" fill="#232122"/><path d="M380.27,235.53l3.99,1.01v.98s-1.99,0-1.99,0l-1.5.97c-1.85-1.67-1.49-1.23-.5-2.97Z" fill="#78787a"/><path d="M311.27,290.53l1.51-1.99h1.48s0,2.99,0,2.99c-1.98-.11-1.85-.53-3-1Z" fill="#161515"/><path d="M356.27,338.53c2.25-1.9,3.35.34,2.99,3-1.61.52-1.88-.97-1.99-1-.32-.67-.69-1.33-1-2Z" fill="#232122"/><path d="M354.27,217.53h-3s0-3,0-3c.74.07,1.94-.4,2.51-.98l.49,3.98Z" fill="#78787a"/><path d="M310.27,290.53v1c-.66-.25-2.11.18-3,0l1-3c1.22.5,1.8,1.91,2,2Z" fill="#bababb"/><polygon points="347.27 200.53 345.28 199.04 351.78 194.55 347.27 200.53" fill="#9a999b"/><path d="M336.27,267.53c.37-.36-.95-2.88,3-2v2c-.46-.04-1.88,1.26-3,0Z" fill="#232122"/><path d="M360.27,305.53c.03.58-.05,1.45,0,2-.63,0-2.34,0-2.99,0v-1.99s2.99,0,2.99,0Z" fill="#161515"/><polygon points="362.27 346.52 359.27 346.52 360.28 343.53 362.26 345.04 362.27 346.52" fill="#9a999b"/><path d="M360.27,305.53c-.59-3.39,3.03-2.77,2.01.49l-2.01.51v-1Z" fill="#232122"/><path d="M341.27,194.53c-.25.14-.73.7-1,1-1.91.35-2.31-1.52-3-2,.72-.23,3.3.78,4,1Z" fill="#4a4a4d"/><path d="M350.27,247.53c-3.05.57-3.06-2.6,0-2,.15.56-.17,1.84,0,2,.73.67,4.73.84,3.99,3.99l-3.99-3.99Z" fill="#5e5c5d"/><polygon points="346.27 317.53 343.29 318.04 345.78 314.53 346.27 317.53" fill="#373738"/><rect x="339.28" y="313.53" width="1.99" height="1.99" fill="#373738"/><rect x="311.28" y="242.53" width="1.99" height="1.99" fill="#4a4a4d"/><polygon points="338.26 315.52 336.28 315.03 338.26 313.53 338.26 315.52" fill="#373738"/><polygon points="406.28 235.52 406.28 234.54 407.76 234.54 409.25 236.04 406.28 235.52" fill="#bababb"/><rect x="356.28" y="284.54" width="1.99" height=".98" fill="#bababb"/><path d="M405.27,244.53l-2,1,2-1Z" fill="#232122"/><polygon points="372.28 194.52 372.28 193.54 373.76 193.54 375.25 195.04 372.28 194.52" fill="#dedede"/><path d="M353.77,288.53c.65.33.65.67,0,1v-1Z" fill="#d6d7d8"/><path d="M358.76,245.55c.55.64,2.01,1.3,1.02,1.96-.48-.59-2.01-1.26-1.02-1.96Z" fill="#dedede"/><path d="M359.77,269.53c.65.33.65.67,0,1v-1Z" fill="#cbcbcc"/><path d="M379.27,273.53l-1-1c.84.07.93.99,1,1Z" fill="#232122"/><path d="M309.77,245.53c.65.33.65.67,0,1v-1Z" fill="#4a4a4d"/><path d="M372.27,278.53h1s-.54.95-1,0Z" fill="#5e5c5d"/><path d="M314.77,241.53c.65.33.65.67,0,1v-1Z" fill="#4a4a4d"/><path d="M327.77,284.53c.65.33.65.67,0,1v-1Z" fill="#cbcbcc"/><path d="M406.77,248.53c.65.33.65.67,0,1v-1Z" fill="#bababb"/><path d="M375.76,196.55c.55.64,2.01,1.3,1.02,1.96-.48-.59-2.01-1.26-1.02-1.96Z" fill="#dedede"/><path d="M315.77,239.53c.65.33.65.67,0,1v-1Z" fill="#4a4a4d"/><path d="M385.77,237.53c.65.33.65.67,0,1v-1Z" fill="#78787a"/><path d="M317.27,201.53c1.13,1.67,6.93,7.17,8,8h-1.99c.05.65-.14,1.43,0,2-2.66,2.29-2.29-1.25-3.18-1.81-3.57,2.23-1.2-3.89-6.82-2.18-.3,1.36,1.3,1.03,2,1.99-2,.18-2.13-.99-3-2,2.35-1.26,4.24-3.12,4-6,.28.08.65-.05,1,0Z" fill="#373738"/><path d="M302.27,197.53c.14.09-.3,2.57,2,2,0,.66,0,3.28.01,3.99l.99-1.99,1.93.93,1.08-5.93,6.48,2.04,1.49-3.03c.77,2.97.39,3.76,3.01,5.99-.65-.06-1.36.09-2,0-.2-.29.12-1.42,0-2-1.01.02-1.89-.27-2,1-3.41,4.19-8.77,4.02-9.99,9.51,4.46.06,2.26,2.27,2.99,3.49-.3,1.01-1.18.86-2,1-5.8,1.01-5.33,3.53-6.58,3.86-1.47.14-2.99-1.2-4.42-.86,0,0-2-1-2-1,.43-1.44-.22-2.52,1.46-4.05,2.31-2.24,2.07,2.03,5.54.03l-1.99-.99c1.76-1.39,3.44-5.52,3.86-7.81.32-1.71-.74-1.82-.86-2.19-.84-2.56-1.39-3.19-4-4l-.49-2.01c1.25.67,4.68,1.48,5.49,2.01Z" fill="#373738"/><path d="M273.27,242.53c.35.67,1.23,2.22,1,3l-2.01.51c-.24,2.41,1.98,4.21,2.01,6.49.01.88-1.63,3.38-1.01,5.01h-2s1.02-2,1.02-2c-2.68.22-4.92-.21-7.52-.89-.83-.03-1.26.83-1.49.88-.57.03-1.41-.02-2,0-.51-1.72-2.57-.79-4-1,1.93-3.58,8.11-4.1,11.99-6.01,0,0,2,4.01,2,4.01l-1.99-8c1.78-1.07,1.99-1.21,4-2Z" fill="#cbcbcc"/><path d="M281.27,188.53c.69,1.2.68,3.15,1.98,2.99.5-3.39,5.36-1.52,4.02-7,5.36-.55,2.48,7.99,4,10.01-1.95,2.37-4.52,2.42-7,1-1.96-.96-1.86-4.02-5-3,.26-1.11-.2-2.76,0-4.01h1.99Z" fill="#5e5c5d"/><path d="M266.27,222.53c-2.51,6.19-6.69,23.06-14,25,.21-2.88,1.97-5.11,3-8,5.14-4.76,5.08-13.01,11-17Z" fill="#9a999b"/><path d="M277.27,232.53l2.77,2.19-.78,1.8h4.01c-1.87,8.33-3.09,1.9-3.48,2-1.12.73-3.6,2.28-3.52,4.01-.66.05-1.34-.04-2,0,.15-4.97,1.22-6.04,3-10Z" fill="#373738"/><path d="M291.27,194.53c2.57-.46,1.74,1.42,2.11,2.85,3.49.56,6.65-.68,7.89,4.15l-7,.99,2.99-2.98-8-1.02c-.31-1.78.9-2.85,2-4Z" fill="#acabad"/><path d="M306.27,214.53l-10,11c-.45-2.92,1.84-4.76,0-8,6.15,2.55,1.73-1.3,10-3Z" fill="#9a999b"/><path d="M285.27,226.53c.2,1.78-.24,3.31-2,4-.26-.56-1.06-1.11-1.02-1.98h-1.98s.99,3.98.99,3.98l-4-.99c1.09-2.51,4.89-8.34,8-5Z" fill="#373738"/><path d="M260.27,254.53c.52,2.34-2.31,6.04-4.49,6.02l-2.51-4.01c2.28.3,2.89-.27,4-2.01.87.17,2.34-.25,3,0Z" fill="#4a4a4d"/><path d="M269.27,244.53l1.99,8-2-4.01c-.31-.35-1.39.87-1.99,1.01.31-2.35-1.12-4.68,2-5Z" fill="#acabad"/><path d="M252.27,247.53c1.98,4.68-12,13.95-5,13-2.78.83-4.1.53-7,1,1.56-2.8,5.35-2.85,7.05-5.45.82-1.26,4.1-7.77,4.95-9.55v1Z" fill="#dedede"/><path d="M264.27,227.53c1.3-2.93,2.34-5.88,3-9,.25-.73,1.48-1.6,1-3,1.11-.61,1.86-1.66,2.99-2,.9,1.19-5.5,12.21-6.99,14Z" fill="#acabad"/><path d="M262.27,238.53c1.24-1.77,1.56-2.25,3-4-.01,2.45-.28,3.95-3,4Z" fill="#acabad"/><path d="M260.27,241.53c.81-1.93.04-1.43,2-3-.11,1.27-.56,2.57-2,3Z" fill="#acabad"/><path d="M266.27,231.53c.24-.51,2.8-1.69,2.01-4,5.17-.43-1.88,5.62-3.01,7-.18-1.14.53-1.98,1-3Z" fill="#acabad"/><path d="M252.27,256.53c2.68-4.36,4.08-12.1,8-15-2.11,5.02-4.08,10.76-8,15Z" fill="#acabad"/><polygon points="287.26 222.53 286.78 225.52 285.28 224.01 285.28 222.53 287.26 222.53" fill="#373738"/><path d="M274.27,242.53c0,.17,0,1.9,0,2l-1-2c.29-.11.62-.78,1-1-.04.32.01.67,0,1Z" fill="#acabad"/><path d="M270.77,225.53c.65.33.65.67,0,1v-1Z" fill="#acabad"/><path d="M316.27,187.53c-2.06,4.07-3.44,5.7,2,6,.28.18.8,4.03,5,3,0,.43-1.45,1.82-1,2.99,1.61.51,2.06-.51,3-.99.97.1,2.06-.14,3,0l1,4h-1.99c-.41,1.45.58,2.02.99,3l-3,1c-3.84-3.14-8.65-5.79-9.01-10.99l-1.49,3.03-6.48-2.04-1.08,5.93c-.82-.33-2.43-1.17-2.93-1.93v-1l3-1.01v-1.98s-4,0-4,0c-.34-2.7,3.22-2.04,4.51-3.99l-1.5,2.98,3.86-.2c.08-3.08,3.65-5,4.14-7.79h2Z" fill="#4a4a4d"/><path d="M253.27,285.53c-.9.29-4.39,2.83-5,4-4.29.77-2.79,1.28-6,4-2.13,1.81-5.94,4.16-6,6-.32-.19-1.41.16-2,0v-1.48c1.87-1.02,2.23-4.28,3.29-5.23,1.5-1.35,12.87-6.84,15.71-8.28v1Z" fill="#bababb"/><path d="M268.27,271.53c.33.01.67-.01,1,0v3c-1.58,2.04-3.85,2.56-6,1-.18-.2-2.79.64-2-2,2.34-.69,4.26-2.12,7-2Z" fill="#9a999b"/><path d="M268.27,255.53v3c-1.27-.2-3.26-2.34-4.99-1v-2c1.02-1.65,3.54-.3,4.99,0Z" fill="#4a4a4d"/><path d="M254.27,276.53h2v1c-.93-.2-2.38.32-3.4-.1l-.6-.9h2Z" fill="#9a999b"/><path d="M257.27,274.53c-.64.59-.89,1.22-2,1,.09-.64-.14-1.44,0-2l2,1Z" fill="#9a999b"/><path d="M228.27,315.53v1l-.5-2c.71.4.45.98.5,1Z" fill="#373738"/><path d="M262.27,255.53l-.5,2.01c-1.06,0-.2-1.47-.5-2.01h1Z" fill="#4a4a4d"/><path d="M226.27,321.53l-1-1c0,.07.93.49,1,1Z" fill="#161515"/><path d="M249.27,322.53l3.5-7,.49,4c1.53,1.55,16.43-4.51,19.59-4.92,5.7-.75,11.94.68,17.77-1.05l.64-3.04c3.18-.68,1.76,1.97,1.99,4.01,3.92-.97,8.77,1.74,12.01,1.99l-1,.99,1.99.99c-1.59-.17-2.39.34-1.99,2.01-4.96-1.37-11.32-2.87-16.45-4.98-1.11.28-1.08,2.71-2.25,3.01-2.87.74-12.43-.96-16.35-.58-6.36.54-13.56,6.07-19.96,4.55Z" fill="#373738"/><path d="M308.27,315.53c-.68,2.84,1.52,1.67,2,2,3.14,2.16,4.31,3.94,9,3,.44,2.22,1.47,2.99,3.52,3.98l3.48-2.97-.28,2.98,2.17.12c.75,5.25-.56,2.67-2.88,5.89-4.47-1.7-2.89-3.22-4.71-5.05-2.24-2.26-7.57-3.78-10.29-4.95-.75-.32-1.8-4.49-4,0-.65-.05-1.46.13-2,0-.4-1.67.41-2.18,1.99-2.01l-1.99-.99,1-.99c1.19.09,2.4-.96,3-1Z" fill="#242222"/><path d="M335.27,327.53c.28-.13.76.14,1,0,1.28,3.26,2.6,6.49,3,10-.71.21-1.67,1.46-1.98.51,2.6-3.15-4.19-8.9-7.29-8.35-2.4.42-1.54,2.06-4.73.84.83-2.03,3.72-1.47,3-4l1.98-1,2.57,4c1.64.35,2.2-1.88,2.45-2Z" fill="#5e5c5d"/><path d="M310.27,320.53c-1.32-.07-2.68.11-4,0,2.2-4.49,3.25-.32,4,0Z" fill="#373738"/><path d="M452.27,540.53c1.55.73,3.99.64,4,1.99-7.77-1.28-13.63,4.5-20.98,5.52,7.93-4.13,5.51-8.93,16.98-7.51Z" fill="#242222"/><path d="M459.27,552.53l-3.99,2c-.08-.65.08-1.36,0-2,1.32.1,2.7-.14,4,0Z" fill="#5e5c5d"/><path d="M468.77,555.53c.65.33.65.67,0,1v-1Z" fill="#cbcbcc"/><path d="M405.27,432.53c-1.28,2.38-.57,4.2-1.49,6.97-2.94,4.71-6.45.57-5.51-3.97,3.65-.85.56,3.27,2.99,3v-9c2.19-2.19,3.22,1.3,4.01,3Z" fill="#9a999b"/><path d="M407.27,431.53c1.23,3.95,4.41,10.16,0,13,1.31-5.05-2.88-7.65-2.01-12,.32-1.04,1.62-2.19,1.01-4h.98c.17.92-.22,2.25.01,3Z" fill="#bababb"/><path d="M288.27,293.53h2c10.96,3.74,21.55,9.95,31,17-.9,3.75-2.73,6.34-2,10-4.69.94-5.86-.84-9-3l2-1.99c-2.69-.3-4.28.19-6.99.99-3.23-.25-8.09-2.97-12.01-1.99-.23-2.03,1.19-4.69-1.99-4.01l-.64,3.04c-5.83,1.73-12.07.3-17.77,1.05-3.16.41-18.06,6.47-19.59,4.92l-.49-4-3.5,7c-2.06.04-3.97-.01-5.99,0l1.51-3.97-4.51-1.02c1.07-.95,2.41-5.34,3-6,1.65-1.7,8.77-5.07,8-10,3.9-1.78,6.12-5.81,9-5,.52.02,1.84,1.4,3,1l.06-2.9c9.45-1.24,15.31-2.51,24.95-1.1Z" fill="#dedede"/><path d="M293.27,367.53c.02,1.27-.42,5.99.5,6.01,2.5-2.48,2.25-2.79,2.5-6.01,4.71,1.35,10.39,1.53,15,3,2.96.94,5.7,3.63,9,4,.29.99,7.56,7.74,8.51,8l1.48-1.99c.57,3.53-2.32,7.08-3.49,10.01-.5-4.69-3.54-3.95-5.5-5.01-2.62-1.42-5.52-2.83-8.16-4.34-2.78-1.58-4.71-5.47-8.25-4.72-1.09.23.08,2.5-1.58,2.06l-.68-3.05c-2.11.24-3.76.52-3.35-1.93h-.96c-.18,2.45-1.78,1.65-3.02,2.99h-1c-.49-.77-1.33-.72-2-1-.9-.37-1.54-2.16-3.49-2.04-1.33,4.32-7,1.29-11.51,3.04-2.75.75-5.01,2.97-8,3.01.12,2.44,2.22,7.22,5,6.99-.81,1.9-3.62,1.62-3,4-.36.06-.87-.11-1,0-5.25-3.14,2.3-1.78-1.12-7.38-.42-.69-.98-1.63-1.87-1.62l-.47,2.9c-.29-.23-.44-.89-.54-.9-1.17-4-2.6-7.71-2-12,3.91-.8,3.18-2.27,7-3l22-1Z" fill="#232122"/><path d="M291.16,356.43l-4.88,2.1c-.12-3.29.2-5.84,3.5-6.97l1.38,4.87Z" fill="#bababb"/><path d="M277.27,361.53l.58-2.08,3.31,1.19-1.39,4.88c-.61-.13-1.22-3.41-2.49-4Z" fill="#bababb"/><path d="M276.27,361.53c-.85.19-2.06-.09-3.01,0-.06-.66.05-1.34,0-2,1.46.01,2.57.57,3,2Z" fill="#bababb"/><polygon points="288.25 363.52 286.28 363.52 286.29 361.55 289.26 359.53 288.25 363.52" fill="#bababb"/><path d="M280.77,404.53c.65.33.65.67,0,1v-1Z" fill="#4a4a4d"/><path d="M428.27,530.53c.57.12,1.35-.12,2,0v2c-1.33.02-2.67-.02-4,0v-2c.51.17,1.39-.13,2,0Z" fill="#5e5c5d"/><path d="M429.27,528.53c-.38-.23-.7-.88-1-1,.07.08,1.2-.02,1,1Z" fill="#5e5c5d"/><rect x="294.28" y="404.54" width="1.99" height=".98" fill="#9a999b"/><path d="M370.77,393.53c.65.33.65.67,0,1v-1Z" fill="#9a999b"/><path d="M369.76,390.55c.55.64,2.01,1.3,1.02,1.96-.48-.59-2.01-1.26-1.02-1.96Z" fill="#9a999b"/><path d="M297.27,375.53c.51-.31.97-1.33,1.02-1.99h.96c-.41,2.44,1.23,2.17,3.35,1.93l.68,3.05c1.66.44.49-1.82,1.58-2.06,3.54-.75,5.46,3.14,8.25,4.72s5.54,2.91,8.16,4.34v3c-1.86-.8-4.68,0-5.5-2.01l-.96,2.02-3.54-2c.37-1.07.06-2.79,1.01-3.99-.75-1.05-15.32-1.06-15.01-7.01Z" fill="#acabad"/><path d="M313.13,543.67l1.14,3.85h-7.99c-.02-3.62,3.87-4.67,6.85-3.85Z" fill="#373738"/><path d="M315.27,361.53c2.94,2.74,1.78,12.21,5,11,.1.63-.15,1.47,0,2-3.3-.37-6.04-3.06-9-4,.01-1.32-.02-3.72,0-5,2.33-1.2,2.92-1.13,4-4Z" fill="#acabad"/><path d="M325.27,365.53c.37.67-.24,3.78,0,5.01l-3.9-.1-.1-7.91-1.98,1.01v-4.01c3.32.64,2.71,6.32,5.99,6Z" fill="#4a4a4d"/><path d="M296.27,359.53c2.85-5.09,5.14-.21,5.65-.08,1.37.37,9.81-.44,10.35.08.54,1.56-.86,3.01-1,4-1.53.03-4.18-.23-5,0-3.91-.03-6.22-1.29-10-1-.05-1,.06-2.01,0-3Z" fill="#dedede"/><path d="M345.27,428.53c-2.05,1.29-1.95,4.04-3,6h-1c-.26-2.09.43-2.75,1-5,.13-.64,1.11-1.26,0-2v-1c.94.5,2.64.1,3,2Z" fill="#acabad"/><path d="M292.27,375.53l-1.51,4.01-4.48-2,1.99,2.98-4.01,1.59,2.02,4.42c.54-3.12.33-1.15,2.61-2.39.45-.25.58-1.62.87-1.6,1.9.14,3.19,2.03,2.52,3.99h-6.01c-.11.62.1,1.36,0,2-1.98.13-4.03-.15-6.01,0v-4.01c-1.03-.03-2.02.05-3,0v-2l4.01-.5-4.01-.5v-5c4-1.09,7.4-.34,10.34-1.01.76-.17.71-2.01,1.17-2.04,1.95-.11,2.6,1.67,3.49,2.04Z" fill="#bababb"/><path d="M278.27,384.53c.59.12,1.35-.11,2,0v4.01c-2.7,2.33-2.18-.4-5.01,0l1.02,1.98c-1.6.19-3.47-.24-5.01,0-.62-2.38,2.19-2.1,3-4,.39.02,1.14-.65,1.53-.98l-.53,1.97c1.97.38,2.95-1.05,3.01-2.99Z" fill="#78787a"/><rect x="287.28" y="381.53" width=".98" height="1.99" fill="#bababb"/><path d="M270.77,534.53c.65.33.65.67,0,1v-1Z" fill="#5e5c5d"/><path d="M299.27,362.53c2.07,5.98,7.1,5.53,12,3-.03.33,0,.67,0,1l-.98.5.98.5v3c-4.61-1.47-10.29-1.65-15-3,.12-1.58.07-3.41,0-5,.95.12,2.12-.17,3,0Z" fill="#cbcbcc"/><path d="M342.27,426.53v1c-.41.26-.75.59-1,1-.03.05-.99-.12-.98.5.48.35,1.39.61,1.98.5-.3,1.48-.74,2.08-1,3-.88.04-1.43-.73-2-1,.13-.94-.19-2.15,0-3,.13-.58,1.48-1.73,1-3,.32.31,1.42.69,2,1Z" fill="#4a4a4d"/><path d="M303.77,355.53c.65.33.65.67,0,1v-1Z" fill="#bababb"/><path d="M428.27,534.53c-.41-.09-.82.11-.98-.5l.98-.5v1Z" fill="#5e5c5d"/><path d="M302.27,241.53c-1.82,4.1-5.76,4.74-6.02,9.01l-5.98-1.02,1.48-3c-3.38-.37-5.76,3.43-8.49,4.01-.25-1.8.95-4.42-1.98-4.03l-.02-1.47c2.91-3.45,8.47-6.3,11-9.51l1.99,5.99c-.42-6.05,5.13-6.47,10.01-8.99,2.12,2.87-2.89,4.48-2,9Z" fill="#4a4a4d"/><path d="M308.27,232.53c-.96,1.26-1.37,3.44-2.98,4.51l3.97.98-6.99,3.51c-.89-4.56,4.12-6.1,2-9,1.27-.6,3.27-1.91,4,0Z" fill="#9a999b"/><path d="M274.27,245.53c.18,1.72.68,5.45,1,7h-1c-.03-2.27-2.25-4.08-2.01-6.49l2.01-.51Z" fill="#acabad"/><path d="M277.27,240.53l.99.51v1.48c-.65.05-1.33-.05-1.99,0-.08-1,.39-1.37,1-2Z" fill="#acabad"/><path d="M283.27,248.53c.02.67-.02,1.33,0,2-1.92.41-2.34,0-1.99-1.99h1.99Z" fill="#cbcbcc"/><path d="M283.27,233.53c.01.33.02.67,0,1l-2.01-.5,2.01-.5Z" fill="#373738"/><rect x="377.28" y="236.53" width=".98" height="1.99" fill="#78787a"/><path d="M335.27,180.53l-12.06,10.45c-2.3,4.28.61,3.46.06,5.55-4.2,1.03-4.72-2.82-5-3,1.4-1.46,3.39-3.4.01-3.01l-.02-1.99c4.62,1.23,3.76-1.88,6.01-3.47,3.66-2.59,5.97-2.34,8.99-3.53,1.25-.49-.51-.92,2-1Z" fill="#373738"/><path d="M346.27,185.53l-.12,2.86c-2.64.61-7.97,2.03-7.88,5.14h-1c-.35-.24-1.98.56-2.03-.52-.05-4.04,7.76-6.81,11.03-7.48Z" fill="#373738"/><path d="M328.27,195.53c.19-.26-.16-1.42,0-2,3.09-.72,4.92,3.6,5,4,.09,1.03-.93,2.28-1,3-1.14-.45-2.21-1.12-3-2-1.25-.08-2.69.04-4,0,.95-.49,2.07-2.37,4-2.01l-1-.99Z" fill="#9a999b"/><path d="M328.27,195.53l1,.99c-3.47-.26-3.69,3.69-6.99,3.01-.34-1.84,1.42-2.59,1-3.99,1.29.02,4.08,1.26,5,0Z" fill="#78787a"/><path d="M348.27,185.53h3.99s0,.99,0,.99l-5-.99c.32-.05.67.04,1,0Z" fill="#242222"/><path d="M290.27,281.53c-2.59,2.54-16.79-.05-18,1.01l3,4.99-.64,2.03-6.28.1-.72,2.94-7.36.93c-.09-.84-.01-1.72-1-2,1.82-.98,3.14-2.43,4.99-3.01v-.98c-3.68.4-4.99-.45-7.99-2.01,3.14.1,6.09-1.1,9-2-1.11,5.84,2.97,4.8,6.99,3.99l-2.99-4.99c9.52-2.36,11.18-2.2,21-1Z" fill="#161515"/><path d="M270.27,274.53c.42,1.35-.11,2.14,2,3-3.24,1.36-7.42,3.73-9-2,2.15,1.56,4.42,1.04,6-1h1Z" fill="#78787a"/><path d="M276.27,287.53v2c9.19-.38,18.23.03,27,3,2.22,3.18,8.77,3.08,11,7-5.74-1.5-16.1-8.71-21-5-1.55-.15-2.59-.1-3.76-1.83-.72-.13-1.15.84-1.24.83-9.64-1.41-15.5-.14-24.95,1.1l-.06,2.9c-1.15.4-2.48-.98-3-1-.07-.99.1-2.02,0-3l7.36-.93.72-2.94,6.28-.1.64-2.03h1Z" fill="#5e5c5d"/><path d="M314.27,299.53c.86.32,1.36.71,2,1v2s2,0,2,0c1.73,2.13,3.72,3.33,5,4,2.25,1.69,5.58,7,6.98,9.51l-.98.49c-10.47-9.06-23.15-16.56-36-22,4.9-3.71,15.26,3.49,21,5Z" fill="#242222"/><path d="M330.27,311.53c-.3,3.47,3.5,4.85,2.99,7.99h-1.99c-.23-.37-.4.33-2-2.99l.98-.49-3.98-6.51c.83.55,3.07.71,4,2Z" fill="#373738"/><path d="M319.27,303.53l5.99-.99v.98c-2.27-.31-2.3,1.07-1.99,3.01-1.38-1.09-1.84-.42-4-3Z" fill="#cbcbcc"/><polygon points="320.27 297.54 318.76 299.52 317.28 299.52 317.28 296.53 320.27 297.54" fill="#cbcbcc"/><path d="M316.27,300.53c3.34,1.53,1.19,1.08,2,2h-2s0-2,0-2Z" fill="#cbcbcc"/><path d="M396.27,215.53l1,1c.52,2.75.06,2.58,0,4-2.17-1-3.39-2.54-2.99-5h1.99Z" fill="#373738"/><path d="M396.27,212.53v1c-.33-.33-.69-.64-1-1,.16-.17.13-.97.5-.97l.5.97Z" fill="#acabad"/><path d="M397.27,222.53v-1c-.05.32,0,.68,0,1Z" fill="#373738"/><path d="M397.27,216.53l-1-1h1c.05.33-.06.68,0,1Z" fill="#acabad"/><path d="M397.77,263.53c.65.33.65.67,0,1v-1Z" fill="#232221"/><path d="M353.27,187.53h3.99s0,.99,0,.99h-2.99c-.07-.28-.86-.63-1-.99Z" fill="#232221"/><path d="M298.27,289.53c1.28.32,2.85,1.86,5,1,.13.6-.19,1.58,0,2-5.89-1.43-11.82-3.59-18-3,4.19-2.02,8.75-1.06,13,0Z" fill="#cbcbcc"/><path d="M282.27,274.53c-6.19,1.75-8.25-.07-12-4,3.13-2.1,8.87,2.21,12,4Z" fill="#161515"/><path d="M295.77,255.53c.65.33.65.67,0,1v-1Z" fill="#232221"/><path d="M315.27,209.53c-.69-.96-2.3-.63-2-1.99,5.62-1.71,3.25,4.41,6.82,2.18.89.56.52,4.1,3.18,1.81.03.13,1.45.67,1,2l-2.89.08-.11,2.92c-1.01-.6-1.66-1.29-3-.99v1.99c-.65-3.05-1.95-4.15-1.96-4.46.78-1.02,1.22-2.12.95-3.54l-1.99,1c-.16-.22.16-.78,0-1Z" fill="#4a4a4d"/><path d="M303.27,289.53c.51-.02,1.78-1.45,2.99-1l-1.99,5c-1.58-.67-.86-2.58-1-4Z" fill="#bababb"/><path d="M329.27,201.53c-.05.33.03.67,0,1l-1-4c.34.05.72-.08,1,0-.09.98.13,2.04,0,3Z" fill="#78787a"/><path d="M330.27,199.53v2h-1c.13-.96-.09-2.02,0-3,.35.11.66.78,1,1Z" fill="#4a4a4d"/><path d="M310.27,204.53c1.67,1.8,1.96,5.01,5,5,.09.56-.09,1.49,0,2-.22-.22-1.02.15-1,.5.07,1.09,1.47-.03,1-.5h2c-.08.48-.97,1.16-.96,1.54.24.15,2.71,4.6,1.96,6.46-3.35-1.38-6.5-5.91-10-6-.73-1.22,1.47-3.43-2.99-3.49,1.05-4.42,2.74-3.9,4.99-5.51Z" fill="#dedede"/><path d="M333.27,317.53c-.23-.33-.77-.59-1-1,.25.34.93.72,1,1Z" fill="#232122"/><path d="M316.27,201.53c.24,2.88-1.65,4.74-4,6-.77-.89-1.28-2.06-2-3,2.11-1.52,3.04-2.17,5-4,.41.18.76.93,1,1Z" fill="#bababb"/><path d="M260.27,287.53c1.01.3,2.79-.21,3.99.01v.98c-1.85.59-3.18,2.03-4.99,3.01-.93.51-2.51.17-3,2-.91-.28-1.44.28-2,1-1.97,1.04-3.01,1.54-4-1,2.49-2.78,6.64-2.4,8.68-5.98l1.32-.02Z" fill="#acabad"/><path d="M249.77,296.53c.65.33.65.67,0,1v-1Z" fill="#acabad"/><path d="M321.27,310.53c2.05,1.5,6.71,3.33,8,6,1.6,3.33,1.77,2.63,2,3,1.43,2.36,1.96,5.82,4,8-.25.12-.81,2.35-2.45,2l-2.57-4-1.98,1-.12-1.89-2.17-.12.28-2.98-3.48,2.97c-6.24-2.55-2.95-9.09-1.52-13.98Z" fill="#cbcbcc"/><path d="M277.27,381.53v3l-1-4.01c-3.15-.59-1.71,1.49-1.98,3.47l-3.01.54c-1.08-1.52-2.02-3.03-2-4.99,3-.04,5.26-2.27,8-3.01v5Z" fill="#78787a"/><path d="M311.27,367.53l-.98-.5.98-.5c0,.33,0,.67,0,1Z" fill="#78787a"/><path d="M306.27,363.53c.76,1.06,2.66,1.57,3,0,.61.11,1.36-.08,2,0-.09.64.07,1.35,0,2-4.9,2.53-9.93,2.98-12-3,2.79.55,3.91.89,7,1Z" fill="#78787a"/><path d="M309.27,363.53c-.34,1.57-2.24,1.06-3,0,.94.03.92-.38,3,0Z" fill="#acabad"/><path d="M342.27,429.53h-1v-1c.25-.41.59-.74,1-1,1.11.74.13,1.36,0,2Z" fill="#bababb"/><path d="M271.27,384.53l3.01-.54c.28-1.98-1.17-4.06,1.98-3.47l1,4.01c.33.05.68-.06,1,0-.06,1.94-1.03,3.38-3.01,2.99l.53-1.97c-1.76,1.74-3.52,1.06-4.53-1.02Z" fill="#9a999b"/><polygon points="277.27 381.53 281.28 382.03 277.27 382.53 277.27 381.53" fill="#9a999b"/><path d="M341.27,429.53l-.98-.5c0-.62.95-.45.98-.5v1Z" fill="#acabad"/><path d="M317.27,211.53h-2c-.17-.12.16-.79,0-1l1.99-1c-.03.65.11,1.38,0,2Z" fill="#373738"/><path d="M315.27,211.53c.47.47-.93,1.59-1,.5-.02-.35.78-.72,1-.5Z" fill="#4a4a4d"/><path d="M446.27,195.53c-4.59,3.92-7.78,6.45-12,11-8.04,3.47-16.45,6.85-25.41,6.01l-.6-2.52c7.13-4.02,25.09-4.76,28.02-12.5,2.67-1.42,7.03-3.83,10-2Z" fill="#d6d7d8"/><path d="M192.27,273.53l2.01.02-1.01.98c-.58-.06-.91-.45-1-1Z" fill="#dedede"/><path d="M205.27,281.53c4.69,5.77,11.71,12.08,9.99,20-6.52-2.2-7.3-9.64-10.99-14l3,.99-2.97-6.5.98-.49Z" fill="#dedede"/><path d="M205.27,281.53l-.98.49,2.97,6.5-3-.99c-3.7-.13-5.31-8.03-9-8-.33-2.06-.54-3.36-2-5l1.01-.98-2.01-.02c-.33-1.98,1.7-4.53,2-6,4.23,4.23,7.42,9.27,11,14Z" fill="#cbcbcc"/><path d="M173.27,249.53c-8.43-12.31-27.74-30.63-31-44,8.26-4.99,42.8,52.59,52,60,.47,2.47-1.39,4.4-2,7-6.28-7.61-12.99-15.21-19-23Z" fill="#dedede"/><rect x="208.28" y="515.53" width="1.99" height="1.99" fill="#373738"/></g></svg>