<svg xmlns="http://www.w3.org/2000/svg" width="16" height="16" version="1.0" viewBox="300 80 600 600">
  <title>Hinomasu</title>
  <g fill="oklch(0.86 0.18 90.53)">
    <path
      d="M563 88c-14 1-36 5-45 8l-8 4-2 2-4 2h-5q-4-2-13 3l-3 1-35 20 1 2-2-1-2-2-5 3-4 5h5l-4 2c-3 1-10 6-9 7l3-2 4-2c5-2 16-9 15-11h1q0 2 8-2 11-5 10-3l-3 2q-9 3-14 7v4q3 4 0 3v2l-1 1-2-3q1-4-3-2-3 1-1 3v2q-1 1-3-1-1-2-4 1-3 1-1 2t-1 1-9 4-5 6c1 0-8 12-13 15q-8 5-3-1 3-4-3 2l-6 6h2q4-4-1 4l-5 4q-3-1-17 18l-9 11 7-11q2-6 6-10l12-18q2-3-3 1-8 5-3-1 9-9-1 0c-7 6-23 25-28 33q-3 4-2 7 0 2-1 1c-2 0-7 6-7 9l-1 2c-1-1-2 1-9 15q-16 30-24 62c-4 19-4 18 1 17h4l-2 1-5 2q-2-2-2 5l-2 10v50q4 3 0 3c-4 0 2 37 10 65l4 11 2 5a129 129 0 0 0 17 37l11 20a271 271 0 0 0 86 85c-1 1 7 6 9 5l1 1c-1 1 11 8 28 16l6 3h1l-9-6q-14-10-14-14l2 1 2 1-6-7-7-7 9 5q17 12 36 20c8 3 10 3 14 3 6-1 17 2 21 5q2 3-1 2l-9-2h-9q-3 4-19-5l-13-5 21 14a228 228 0 0 0 117 15l-6-1q-2-2-8 1c-6 1-14 1-14-1l-2-1-2-1c0-1-16-5-21-5h-4l4 3q5 2 0 2l-18-10-9-8q-13-9-12-11l8 6 12 9 7 4h2q1-1 18 3a81 81 0 0 0 42 3q3-1-5-2l-7-2-4-1q-6-3 9 0h8l-2-2 9 2a90 90 0 0 0 62 0 291 291 0 0 0 103-60l-4-1h6l10-10c17-18 26-29 38-48 12-18 14-23 15-31l3-14 1-22 1-16 4 15 1 3 3 4 1 4 3-10 4-17a272 272 0 0 0-17-101l-3-11 2 3 2 3q3 2-7-20a114 114 0 0 0-15-31c2 0 12 15 16 25l14 21c1-1-2-10-4-13q-3-4-3-7l-3-9-2-8v-3l2 2 2 2a207 207 0 0 0-19-37q-11-17-10-18 1-4 6 7l6 9q3 2-2-7l-2-5c1 0 7 9 7 11l4 7 7 12 8 12 9 13 4 7-7-24c-9-29-28-66-37-72l-9-9-8-8q-4 0-6-4l-9-6-10-8-28-20-11-6q-11-4-23-11l-25-10-5-2q1-2 10 1l5 2q-2-3-11-5l-27-9 8 1c11 2 30 8 38 12l34 15c6 2 22 11 37 22l16 11a322 322 0 0 0-68-55c-8-5-9-5-27-7l-13-3-12-2-28-4-4-1 5-1q10-1-5-3l-18-6 18 2 15 1 17 2h4l-4-2a257 257 0 0 0-68-14l1 3h-15l-13-3c0-1-13-1-29 1m14 9-1 1-51 8 9-4 22-4 13-2q3-1 8 1m-45 2-1 1-1-1 1-1zm-14 4-2 5q1 2-1 2-5 2-1-3l3-5q0-3 2-3zm95 4-1 1v-1l1-2zm4 2q-2 3-3 1l2-2zm-5 3v1l-1 2-1 4-1 2v2l-2 4-3 5-3 2 1-4 2-4 3-5 3-7v-2l1-1zm-10 4h-2q-2-1 1-1t1 1m-58 1-1 2-1-1 1-1zm49 7q9 1 6 2l-15-3 2-1zm-78 7q-1 2 0 0l1-1zm104-1h-2q-1-1 1-1t1 1m10 1h-2q-1-1 1-1t1 1m-132 1-1 1-1-1v-1zm46 3-1 1-1-1 1-1zm-19 9-1-2q1-2 1 1m157-1 3 1-8-1zm-229 4v7l-2-3-1-5 1-2zm140-1-2 1q-5 1-2-1zm113 3 19 7a560 560 0 0 1 61 37l6 4q2 3 6 4c7 2 10 9 6 11v3q2 5-7-3c-6-7-15-14-18-16l-13-9a84 84 0 0 0-32-17l-15-6-14-6-26-10 12 2 13 4q21 6-2-4-14-6-9-5zm-109 0v-2l1-1zm-152-1-1 1h-1l1-2zm58 1h-2v-1zm-53 8-1-1-1-2q1-1 2 3m52-1-2-1 1-1zm81 6-1 1h-1l1-1zm-128 1-1 1h-1l1-1zm18 5q3 2-1 3-5-1-2-4 2-2 3 1m222 6-1 1-1-1 2-1zm-108 18q-3 8-1-1l2-5 1 1zm-206-4-8 7 6-8zm415 5-1-1 1-1zm-381 7-2 2 1-3q5-3 1 1m39 6-1 2-1-2q2-2 2 0m230 4-1 1-1-1 2-1zm-281 3-4 4 1-3 4-4zm-9-1h-2q-1-1 1-1t1 1m185 3-1 2v-2zm-183 6-4 7-3 7-4 7-17 34q-8 18-6 35 2 7-1 7-3 1-4 4l-4 31-2 11v11l1 13v10l-1 5 2 9 1 6 2-5q4-6 1-16-1-11 3 4c2 6 3 11 3 23l2 19c1 4 1 4-3 8s-4 4-3 9c1 7 7 26 13 38s6 12 3 10l-5-7c-4-6-18-39-21-46a255 255 0 0 1 0-130c4-20 6-27 9-34l8-19 8-18 6-12q3-3 2-5l1-1 3-3 7-11 1-1zm-9 8-1 2q-1 2-1-1l1-2zm393 4-1-2q0-3 1-1zm-166 1-5-3h2zm-189-1h-2q-3 0 1-1 2 0 1 1m9 5-1 1-1-3h1zm25-1-1 1-1-1 2-1zm15 0h-3q-1-1 1-1 3 0 2 1m9 0h-3q-1-1 1-1 3 0 2 1m-39 1h-4q-3-1 1-1t3 1m10 0h-4q-1-1 2-1t2 1m-63 5v1l-2-1 1-1zm12 2-1 1-1-1 2-1zm137 1-1 2v-2l1-2zm-145-1c0 1-6 2-7 1l3-1zm316 4h-4q-1-1 2-1t2 1m-314 1 1 1-2-1zm95 1 1-2zm224-2-1 2-1-1 1-1zm-315 6v3l-1-1q-2-6 1-4zm304-2h-2q-1-1 1-1t1 1m-299 9 4 5q3 0 1 1-3 1-6-6-4-7-1-3zm129-3-1 2zq3-3 1 0m-110 2-2 2 2-3q3-4 0 1m71 2-1-1-1-2h1zm-106 1q-3 0-3-3h2zm387-3h-1q-6-1-2-1zm-184 3h-2v-1zm134 1-3 2-2 2 2-2q3-4 3-2m-310 11-6 10-4 11-4 9-1 4-1 5q-2 6-2-1v-6l2-4c2-7 18-38 20-37zm302-4-3 4-4 3 3-4zm-130 9-2 1v-1zm222 3q7 4 8 10 5 15 0 8 0-2-4-3c-6-3-11-11-6-10q5 1-1-3-5-5-3-6zm-432 0v1l-1-1v-1zm50 5 1 3-3-5-1-2zm148-4-2 1h-2zm-7 3-2 1v-1zm-88 4-2 1q-2-1 1-1 4-3 1 0m80-1-2 1-1-1zm-221 2-2 2v-2l3-2zm341 0-2-1q-1-1 0 0zm-307 4q0 2-2 0l1-1zm329 0h-1q-3 0-1-1zm-231 1-2 1h-1zm-33 2v2l3 2v2h-3v-1l-3-3v-2q3-4 3 0m182 2q-3 2-1-1l2-1zm69-3-1 2-1-1 1-1zm-19 3q2 2 0 0l-2-1q0-2 2 1m21 1q2 2 0 0l-2-1q0-2 2 1m-312-1-1 2-1-1 1-1zm415 3-4 2 2-2 3-3zm-99 0v2q2 1 0 0l-2-1zm126 3-1 1-1-3h1zm-373 7 1 3q2 3-1 1l-3 1v1q-1-3 1-4l1-1-2-1-5 3-4 1 3-2q3-2 1-4l-2-2 2 2q4 3 4-2l-1-1-3-1h1l1-1c0-2 5 4 6 7m236-6-1 1-1-1v-1zm87 1 1-2zm-364 3h-2v-1zm115 0-3 1 1-1zm318 0-1 2-1-1 1-1zm-134 5q5 6-1 0l-2-4zm-192-2h-2v-1zm-188 4h-2v-1zm171 0-2 1q-3 0-1-1zm-176 0-1 2-1-1 1-1zm111 2-1 1v-1zm22 3 1 5 1 2 2 2v2l-2-2q-3-3-4-1h-2q-3-3 1-3l3-2-1-1-1 1-1 1-1-4q0-7 4 0m229-3-2 2q-1 1 0 0zm-203 3h-2v-1zm234-1-2 3-3 2 2-3zm-318 3-1 9-1 6-3 9c-3 15-1 58 2 66 1 2 1 0 2-18l1-20v11a313 313 0 0 0 5 60v7q4 9-1 1l-4-6c-4-4-9-19-9-29l-2-17-2-13 1-8zm78-2-1 2-1-1 1-1zm-53 4-1 1-1-1zm37 0-1 2-1-1 1-1zm260 3q0 4-3 6l-2 1 2-2 2-3v-5zm-63-2-2 3-3 2 2-3zm-238 2-2 1h-1q2-3 3-1m-56 1-1 1-2-1 2-1zm79 0h-3zm-29 2-14 6 11-6zm43 3-1 1-1-2 1-1zm308 1 1-2zm-300 4 2 7-2-2-2-5q-3-3-1-5zm-103 1v10q0 8-3 5c-2-2-2-12 0-16l2-4zm-47-2v1l-1-1v-2zm231 0-2 2 4-4zm84-1-2 1h-1q3-3 3-1m-304 3-1 1-1-1 1-1zm389 0h-3v-1zm-327 2-3 1q-2-1 1-2 5-2 2 1m27 0v2l-4-2zm-11 5q3 0 2 3 0 3-2 3v-2l-2-3-1-3q0-3 1 0 0 3 2 2m222-4-2 2q-1 1 0 0zm151 2q-1 1 0 0l1-1zm-236-1-3 3-3 3 3-3zm150 2-2 1 1-2q3-2 1 1m28 5q-1 1-1-1t1-1zm76-2-1 1-1-1v-1zm-325 4 1-2zm83 2q2 2 0 0l-2-2zm-85-1-1 2-1-1 1-1zm3 4 1 1 1 1q-1 2-3-3 0-3 1-1zm-64 1v1l-1-1v-2zm270-1-2 2q-1 2 0 0zm-342 3-2 1q-1 1 0 0 2-3 2-1m41 1-1 2-1-1 1-1zm-11 3-1 1-1-1 1-1zm111 3q-1 1-2-2-2-3 1 0zm-67-1-1 1-1-1 1-1zm110 8-2-1q-2-5 1-2zm-159-2-1 1v-2q1-2 1 1m505 0-1 1-1-1v-1zm-386 4-1-2q1-2 1 1m33 0 1-2zm329 5q-2 3-3 1l2-2zm-79 2 1-2zm97 1q-1 5 2 3h1q2 1-2 2-3 0-2-5 2-6 1 0m-500 1q-1 2-1-1t1-1zm162-1q-1 1 0 0l1-1zm322 4-1 1-1-1 1-1zm-250 3q2 2 0 0l-2-2zm52-1-1 1-1-1zm212 1-1 1-1-2h1zm12-1h-2v-1zm-555 3 1-2zm440 1q-1 1-1-1t1-1zm85-2q1 3-1 5-2-2-2-5zm30 1q2 2-2 2t-2-2l2-2zm-384 2-2-3q0-3 2 2m12 2v-1l1-2zm14-1q-1 2 0 0l1-1zm44-1-2 2q-1 2 0 0zm44 2q2 1 0 0l-2-2zm244 3q-2 1-1-3l1-2zm17-2 2 3h-6q-2 1 1 1l2 2q2 2-2 2-2 2-3-3l1-4 1-1 2-3zm-107 0 1-2zm114 0-1 4q-1 3-2 1v-3zm-310 3-2 3-3 2 2-3zm-26 13-4-4-5-4 5 4zm289-5v1l-1-1zm-440 1-1 1-1-1 1-1zm479 2-1 3q-1 2-1-1l1-3zm6 0-1 3-1-2 1-2zm-548 2v1l-1-1v-1zm536 1 1-2zm-358 1-3 3-3 3 2-4q4-5 4-2m26 2h-2v-1h2zm319-1-1 1-1-1v-1zm-310 1h-1q-3 0-1-1zm313 1-1 1-1-1zm8 0-2 3q-1-3 1-4zm5 2q1 2-2 2l-2-1 2-1 1-1 1-2zm-317 1-2 1q-2 0-1-2h1zm320 1-1 1v-1zm-536 2v2zv-2zm162 2-2 1q1-3 3-3zm211-1-2-1q-2-1 0 0zm7-1h-1q-3 0-1-1zm10 1h-2q-1-1 1-1t1 1m66 0-1 1-1-1v-1zm-213 1h-1q-3 0-1-1zm133 1-1 1-1-1v-1zm-374 3-1 2-1-2 1-3zm210-1-2-1q-2-1 0 0zm211 4q-2 8-1-1l2-4zm-220-3-2 2q-2 2 0 0zm14 1-1 2q-2 3-2 0t1-2zm-43 4c-1 1-6-2-6-3h2zm-73-1-3 1v-1zm-47 4q-2 1-2-2h2zm155 2-2 1 2-3zm212 1 1-2zm108 2v28-2l-1-2-2 6-3 8q-1 2-1-2 0-7-2-1c-1 5-12 26-14 28q-5 4 1-6c8-14 9-19 10-24l2-11q1-10 2-2v4l2-3 1-8 1-4 1-7 1-5zm-376-2-3 3-3 2 2-2zm38 2q-2 1 0 0l1-1zm-184 2q1 5-1 3-3-3-1-5zm413 2-1 2-1 1 1-4q0-4 1-1zm-375-2-1 1-1-1zm384 3q-1 1-1-1t1-1zm-190-1-1 1v-1zm199 1-2-1q-1-1 0 0zm-254 1-4 5-4 4 4-5zm269 2v1l-1-1v-1zm-292 0-2 2q-1 1 0 0zm80 4v-3zm-45-3-2 2q-1 1 0 0zm-195 3-1 1-1-1 1-2zm12-1-1 1-1-1zm77 3q3 3 0 1l-2-3zm-28 0-1 1v-1zm25 2-1-2h1zm103-1-2 2q-1 2 0 0zm226 5 1-2zm-96 2-2 2 1-2 2-2zm79-1-2 2q-1 2 0 0zm109 3h-2l-1-1zm-153 3-1-2q-1-1 0 0zm-290-1-1 1v-1zm97 1-3 3-1 1zm261 6-1 1q-1-2 1-3zm-37 3q-1 1-1-1t1-1zm-49 6-2 1zq3-2 1 1m101 2q2 2 0 0l-2-2v-1zm-344 3q1 1 0 0l-2-2zm168-2-2 1q-1 2 0 0zm-225 4-2 1q-3 0 0-1zm76 6-2 1v-1q3-3 2 0m-11 3 1 3q-2 0-2-3l-2-3zm172 0q0 3-1 1v-2q1-2 1 1m-144 1h-1l-2-2 2 1zm370-1-1 1v-1zm-76 3q-3 0-1-1zm-358 5q-2 2-5-3-2-3 2 0zm39-2q3 3 0 3-2 0-2-3v-2zm412 1-1 1-1-1v-1zm-433 2 1-1h1zm28 8q-5-7-2-4zm402-2q-1 1-1-2t1-2zm-427 9v2l-2-2-1-2zm341-1v1l-1-1v-1zm45 2 2 2-4-3q0-2 2 1m9 0h-2v-1zm-358 6q3 0 1 1v3l-2-1q-4-7-6-3l-1 1 2-3q1-3 3 0zm-29-1q3 3 2 4h-1l-2-4q-4-4 1 0m39 0q-1 1 1 1l-1 1h-5q-2-1 1-1l2-1 2-2zm-69 0-1 1-1-1 1-1zm78 2h-2v-1zm214 2-1 1-1-2h1zm-229 5 1 2h-2q-1 1-1-1 0-4 2-1m88 1v1l-3-1zm206 3 1 2-2-3zm-180 1h-2q-1-1 1-1t1 1m-150 1v1l-1-1zm25 2v1l-2-1 1-1zm7 0-1 1v-1zm-20 4-2 2v-2l3-2zm35 2v1l-1-1-1-2zm242-1h-2q-1-1 1-1t1 1m-217 2q1 2 0 0l-2-1q0-2 2 1m-39 1h-2v-1zm63 5q-1 1-1-1 0-3 1-2zm-53 2-1 1-1-1zm319 1 1 1-2-1zm-315 1-2 1h-1l1-1zm232 1h-2v-1zm-104 2h-2v-1zm-92 3q3 3 5 1h1c-1 2-9 2-11 0v-1zm-73 2h-1l1-1h1zm82 0-1 1-1-1zm-29 3h-3q-4 0-2-1 4-1 5 1m5 0h-2v-1zm-13 3h-3q-1-1 1-1 3 0 2 1m8 0h-2v-1zm134 6-1 1-1-2q2-2 2 1m-139 11h-3q-1-1 1-1 3 0 2 1m257 1-1 1q-1-1-4 1l-5 3 4-4q6-4 6-1m-108 4v3l-1-2-1-4 1-2zm-178-3h-2v-1zm180 10-1 1-1-2h1zm75 2 1-2zm-109 10v1l-3-1 1-1zm7 1-2 1v-1zm25 3q0 3-1 1l-1-2q2-3 2 1m-10 8-1 1-1-2q0-3 1-1zm94-2v2l-2-1zm-154 8q2 2 0 1-6-3-4-4zm80 4-1 1-1-1z" />
    <path
      d="m428 139-5 4 12-7c2-2-3-1-7 3m435 178 1 6q1 2 1-3l-1-6q-1-1-1 3m3 27c0 1 2 5 2 3l-1-3zm3 9 2 3 1 5q2 6 3 5c0-3-4-13-5-14z" />
  </g>
</svg>
