<svg id="svg" xmlns="http://www.w3.org/2000/svg" viewBox="0 0 400 200">
	<path fill="#f50000"
		d="M174.6 22.1c-.3.4.3 2.3 1.3 4.1 2 3.7 2.9 17 1.7 22.9-.6 3-.9 3.2-5.4 4.7-12 4-13.5 9-3.1 10.1 6 .6 7 1.5 5.9 5.1-1.7 5.8-5.7 8.4-18.9 12.2-16.1 4.6-17.3 6.4-7.3 11.2 8.1 3.9 13.3 3 30.3-5.5 6.8-3.4 12.5-6.2 12.8-6.2 4.4 0-23.2 18.8-30.6 20.7-4.9 1.3-5 1.4-5 4 0 5.8 4.4 11.2 9.3 11.2h2.7l-2 1.5c-4.6 3.6-5.3 8.6-1.3 8.6 3.6 0 5.4 3.3 3.6 6.4-2.7 4.7-1.9 5.2 5.3 3.3 5.9-1.5 12-5 12.5-7.1 1.5-6.1-5-13.6-12-13.7-1.9 0-3-.2-2.4-.5.6-.2 4.3-2 8.2-3.8 3.9-1.9 8.1-3.7 9.5-4.1l2.4-.7.5 12.2c.5 12.1-.3 25.3-1.8 29.3-1.4 3.7-7.2 2.2-14.9-3.7-6.8-5.3-11.7-7-11.7-3.9 0 2.8 16.5 21.9 25.1 28.9 17.4 14.3 20.3 8.8 20.3-39.5V104h6.9c9.6 0 10.7-1.5 6.4-9-3-5.2-4.6-5.9-14.1-5.9-4.3 0-7.8-.3-7.8-.7 0-2.5 8.7-6.5 18-8.3 5.6-1.1 12.5-3.7 13.3-5.1 2.1-4 .7-7.4-4.1-9.8-7.3-3.7-11.6-3.4-29.8 1.7C187.5 70 187 70 187 68.1c0-2.3 3.9-5.9 9.1-8.5 12.1-6.1 14-14.7 3.2-14.1l-4.6.3.6-5.5c1.2-10.8-.2-15.7-5-17.1-1.4-.4-2.5-1-2.5-1.4-.3-.7-12.6-.6-13.2.3m106.5 2.7c-6.6 2.1-6.2 1.5-13.5 23.3-5.1 15.4-7 19.9-15.7 37-13.2 25.8-14.2 28-19.5 39.4-2.5 5.4-6.4 13.8-8.8 18.8-7.5 15.8-9.6 26.1-6.4 31.3 2.1 3.4 10.9-2.6 10.9-7.4 0-4.8 7.5-22.7 15.1-36.3 2.3-4.1 5.2-9.3 6.4-11.4 1.2-2.1 3.6-6.5 5.4-9.8 21.6-38.4 29.7-56 35.9-78.1 2.8-9.6 1.5-10.5-9.8-6.8m-147.9 6.9c-.2.5-.5 6.1-.7 12.3-.8 21.2-6.7 38.3-24.7 71.8-2.2 4-4 8-4 8.8 0 7 16.3-5.8 24.7-19.4.5-.8.3 1.2-.5 4.5-5.9 25.3-4 46.8 4.8 53.1 3.3 2.4 4.1 1.7 6-5.4 3.4-12.3 7.5-53.3 5.9-57.6-1.1-2.9-2.5-.9-3.5 4.9l-1 6.1-1.4-5.4c-.8-3-2.1-6.4-3-7.6l-1.6-2.2 4.6-9.6c9-18.8 13.3-35.5 11-42.4-2-6.7-15.3-16.1-16.6-11.9M97.9 51c-8 4.4-34.9 23.9-47.5 34.4-3.5 2.9-8.8 6.9-11.8 8.8-3 1.9-7.2 5.4-9.3 7.7-2.1 2.3-5.2 5-7 5.8-3.2 1.6-3.2 1.7-3.5 6.4l-.2 4.8 3.4 2.5c1.8 1.4 3.9 2.6 4.5 2.9.6.2 5.8 2.7 11.5 5.4s10.7 5 11.1 5 1.7.8 2.9 1.8 4.7 3.1 7.7 4.7c3 1.5 7.6 4 10.2 5.5 2.6 1.5 6.8 3.8 9.4 5.2 2.6 1.4 8.2 4.7 12.5 7.2 8.5 5 8.9 5.1 11.9.6 3.7-5.5 1.1-8.5-14.9-17.1-3.4-1.8-11.2-6.8-17.4-11.1-6.2-4.3-11.5-7.8-11.7-7.8-.8 0-19.8-13.1-19.8-13.7 0-.5 9.4-6.4 12.6-8 2-1 5.9-3.8 8.6-6.3C70.7 87.1 90 75 97.2 73.2c7.6-1.9 8.2-2.9 8.3-14.3 0-10.8-.8-11.7-7.6-7.9m199.9.1c-6.3 6.8-6.7 6.3 22.5 24.5 17.8 11 31.5 20.1 37.6 24.8l2.5 1.9-14.9 10.5c-34.3 24.2-35.9 25.1-44.7 26.8-3.5.7-4.7 2.2-5.5 7.1-1.6 9.9-.7 16.8 2.3 16.8 3.9 0 19.1-10.5 51.6-35.5 31.3-24.1 32.3-25.1 31.9-31.4l-.2-3.6-8.6-4.7c-4.7-2.6-13.2-7-18.8-10-5.6-2.9-11.6-6.1-13.3-7.1-1.7-1-4.7-2.7-6.6-3.7-12.8-7.1-22.5-13.1-24.2-15-2.8-3-9.4-3.8-11.6-1.4" />
</svg>
