<?xml version="1.0" encoding="UTF-8"?>
<svg version="1.1" xmlns="http://www.w3.org/2000/svg" width="32" height="32" fill="oklch(0.86 0.18 90.53)"
  viewBox="0 -300 1024 1024">
  <path
    d="M0 0 C132.33 0 264.66 0 401 0 C401 0.33 401 0.66 401 1 C400.37996094 1.11480713 399.75992187 1.22961426 399.12109375 1.34790039 C386.0945065 3.77379414 373.12138395 6.36910616 360.1875 9.25 C346.99441073 12.18857658 333.75910139 14.87647266 320.5 17.5 C306.32786384 20.30643354 292.19157668 23.2114168 278.08691406 26.34033203 C267.15691162 28.76108011 256.20796036 31.08424031 245.25 33.375 C244.34871368 33.56350525 243.44742737 33.7520105 242.51882935 33.94622803 C227.52936019 37.07845554 212.52622161 40.14210654 197.5199585 43.19268799 C184.95701457 45.74867458 172.42236542 48.40737687 159.90713501 51.18707275 C150.25095414 53.3291797 140.57343296 55.26993457 130.85180664 57.08911133 C121.62254031 58.83503572 112.45784849 60.84692474 103.29049683 62.88760376 C91.78104251 65.44504809 80.2355964 67.73945685 68.65039062 69.92578125 C60.36231501 71.50159199 52.17895044 73.29080086 44.01953125 75.43359375 C41.17128813 75.96786963 39.67150186 76.01424264 37 75 C37.7425 74.195625 38.485 73.39125 39.25 72.5625 C44.45297792 66.21812807 46.74248655 59.87071424 46.375 51.63671875 C45.34138034 44.36908054 41.59890291 40.0116544 36.015625 35.47265625 C28.16826281 29.73921527 19.97771974 29.80601562 10.625 29.4375 C5.365625 29.2209375 5.365625 29.2209375 0 29 C0 19.43 0 9.86 0 0 Z "
    transform="translate(498,512)" />
  <path
    d="M0 0 C1.35416667 0.27083333 2.70833333 0.54166667 4.0625 0.8125 C4.98426025 0.99683594 5.90602051 1.18117188 6.85571289 1.37109375 C9.00336148 1.80065682 11.15098402 2.23035014 13.29858398 2.66015625 C19.59780317 3.92060276 25.89738159 5.17919784 32.19764709 6.43440247 C77.76121036 15.51275225 77.76121036 15.51275225 94.46875 19.203125 C106.1336271 21.77959306 117.82139394 24.15042408 129.55570984 26.38998413 C140.38463769 28.46471265 151.18880531 30.65313145 161.98973465 32.86851311 C167.37789478 33.97337602 172.76681311 35.07452739 178.15576172 36.17553711 C179.28576284 36.40641683 180.41576397 36.63729654 181.58000755 36.87517262 C201.50673822 40.94377194 221.44473182 44.95698792 241.38134766 48.97680664 C247.39976969 50.19030446 253.41801112 51.40469516 259.43619156 52.61939049 C264.23573904 53.5879946 269.03540688 54.55600163 273.83507538 55.52400589 C277.3874203 56.24071848 280.93959383 56.95827617 284.49176025 57.6758728 C296.24294295 60.04772488 307.9977156 62.39979483 319.76032853 64.71426523 C324.24011933 65.59646623 328.71905522 66.48300553 333.1981926 67.36851692 C335.64942579 67.85153644 338.10114583 68.33209234 340.5533638 68.8100872 C343.93439078 69.46913984 347.31374676 70.13620336 350.69287109 70.80493164 C351.69813717 70.99848047 352.70340324 71.1920293 353.73913193 71.39144325 C355.11620001 71.66628076 355.11620001 71.66628076 356.52108765 71.94667053 C357.7171164 72.18081712 357.7171164 72.18081712 358.93730736 72.41969395 C361 73 361 73 364 75 C232 75 100 75 -36 75 C-36 65.76 -36 56.52 -36 47 C-30.9571875 46.9071875 -30.9571875 46.9071875 -25.8125 46.8125 C-15.84577014 46.46068986 -5.5359117 45.65171131 2.125 38.4375 C2.74375 37.633125 3.3625 36.82875 4 36 C4.8353125 35.01 4.8353125 35.01 5.6875 34 C9.76251386 27.79045507 9.97902924 21.21301882 9 14 C7.43535699 10.29816321 5.41905607 7.19597918 3 4 C1.99963377 2.66694142 0.9995815 1.33364711 0 0 Z "
    transform="translate(535,431)" />
  <path
    d="M0 0 C1.51941279 1.31116839 3.02025303 2.6442247 4.5 4 C5.25410156 4.66257812 6.00820313 5.32515625 6.78515625 6.0078125 C13.32888271 12.09134551 18.14357666 19.24494852 22.5 27 C22.5 27.66 22.5 28.32 22.5 29 C23.51320313 28.94779297 23.51320313 28.94779297 24.546875 28.89453125 C25.43890625 28.86746094 26.3309375 28.84039062 27.25 28.8125 C28.57257813 28.76029297 28.57257813 28.76029297 29.921875 28.70703125 C33.10020106 29.06820467 34.2374491 29.7504563 36.5 32 C37.00793457 34.72557068 37.00793457 34.72557068 37.01757812 38.06030273 C37.03018677 39.30847275 37.04279541 40.55664276 37.05578613 41.84263611 C37.04862573 43.20629438 37.0404216 44.56994752 37.03125 45.93359375 C37.03394485 47.33220184 37.03782721 48.73080811 37.04284668 50.12940979 C37.04874417 53.06081986 37.04017288 55.99174233 37.02148438 58.9230957 C36.99871468 62.67724989 37.01180211 66.430259 37.03577423 70.18437099 C37.05024406 73.07294811 37.04562066 75.9612548 37.03526306 78.84984016 C37.0325979 80.23370563 37.0358582 81.61759579 37.04518127 83.00143242 C37.05536183 84.93771762 37.03708791 86.87408906 37.01757812 88.81030273 C37.01439575 89.91155991 37.01121338 91.01281708 37.00793457 92.14744568 C36.38248116 95.65998438 35.29622895 96.84901302 32.5 99 C29.921875 99.390625 29.921875 99.390625 27.25 99.25 C26.35796875 99.21390625 25.4659375 99.1778125 24.546875 99.140625 C23.87140625 99.09421875 23.1959375 99.0478125 22.5 99 C22.2525 99.86109375 22.005 100.7221875 21.75 101.609375 C15.72120986 117.96246826 0.64230377 130.37128569 -14.5 138 C-26.62813924 143.35694274 -37.96321294 145.18951155 -51.1875 145.25 C-52.29544922 145.270625 -53.40339844 145.29125 -54.54492188 145.3125 C-65.37551852 145.36313984 -75.03251956 143.31662563 -84.625 138.25 C-85.30095215 137.90219482 -85.9769043 137.55438965 -86.67333984 137.19604492 C-92.28678629 134.24593694 -97.47957417 130.87898027 -102.5 127 C-104.0159375 125.88625 -104.0159375 125.88625 -105.5625 124.75 C-111.90328148 119.29188412 -119.43913584 110.89843683 -122.5 103 C-122.24041012 100.37814225 -121.60853851 99.13796327 -119.97265625 97.05859375 C-118.20849378 94.59250988 -118.15407838 93.05312482 -117.9375 90.0625 C-117.36836106 86.63759312 -117.07138069 85.41554959 -114.22265625 83.34375 C-111.5 82.0625 -111.5 82.0625 -108.8125 81.03515625 C-106.18575183 80.10582983 -106.18575183 80.10582983 -104.5 77 C-103.84 77 -103.18 77 -102.5 77 C-102.20867187 77.83402344 -101.91734375 78.66804687 -101.6171875 79.52734375 C-98.99303261 86.73139162 -96.09350039 92.86670652 -91.5 99 C-90.9225 99.86625 -90.345 100.7325 -89.75 101.625 C-80.61070776 111.2720307 -67.43873906 117.33104641 -54.25 118.21875 C-39.23855686 118.61378798 -25.71579896 114.621433 -14.1875 104.75 C-2.45286229 93.46669451 3.44942569 79.81616486 3.875 63.5625 C3.92885921 49.05417621 -1.8799868 36.40191754 -11.59375 25.69140625 C-23.3315229 14.44270722 -38.1331716 10.51610486 -53.984375 10.64404297 C-59.87242389 10.81552739 -65.05976287 11.64086913 -70.5 14 C-71.17933594 14.2784375 -71.85867187 14.556875 -72.55859375 14.84375 C-86.73671983 21.25569006 -96.03998862 32.70339125 -101.5 47 C-102.33332663 49.67626051 -102.95996902 52.24584201 -103.5 55 C-105.75808519 53.8709574 -107.87734305 52.75472702 -110 51.375 C-115.05604009 49.38869854 -120.12910183 49.23700332 -125.5 50 C-127.71272101 51.44787322 -127.71272101 51.44787322 -129.5 53 C-130.16 53 -130.82 53 -131.5 53 C-129.52699737 31.73989002 -116.92517514 13.24756797 -100.84375 -0.28125 C-70.22858137 -22.73237366 -30.15475078 -23.33959038 0 0 Z "
    transform="translate(262.5,445)" />
  <path
    d="M0 0 C3.53619138 1.38372706 4.67143069 2.44652977 6.6085825 5.70963383 C8.11425942 9.27019593 8.37934192 11.67408224 8.38768005 15.52085876 C8.39758469 16.81477036 8.40748932 18.10868195 8.41769409 19.44180298 C8.41345655 20.86346531 8.40889874 22.28512672 8.40405273 23.70678711 C8.40975897 25.21354172 8.41672422 26.72029202 8.42485046 28.22703552 C8.44276911 32.30972718 8.44161596 36.39220375 8.43590808 40.4749229 C8.43281434 43.88693553 8.43891074 47.29890696 8.44494683 50.71091372 C8.45898619 58.761982 8.45743568 66.81294416 8.44604492 74.86401367 C8.43456404 83.1620094 8.4486401 91.45968192 8.4754414 99.75763506 C8.49761271 106.88988897 8.50423256 114.02204153 8.49836498 121.15432745 C8.49499764 125.41066673 8.49739558 129.66679884 8.51461601 133.92310905 C8.530106 137.92629971 8.5261072 141.92901231 8.50731087 145.93218422 C8.50363063 147.39828781 8.50671701 148.86442699 8.51719666 150.33049774 C8.60833073 164.13781286 8.60833073 164.13781286 4 170 C0.1050178 172.79204664 -4.38602318 172.67561803 -9 172 C-12.59766939 169.85670759 -14.48087629 167.86204943 -16 164 C-16.25726891 161.08825874 -16.25726891 161.08825874 -16.26742554 157.63699341 C-16.27595551 156.32755768 -16.28448547 155.01812195 -16.29327393 153.66900635 C-16.29257491 152.21960437 -16.29165186 150.77020249 -16.29052734 149.32080078 C-16.29651229 147.79301627 -16.30331776 146.26523478 -16.31088257 144.73745728 C-16.32855317 140.58864709 -16.33323839 136.4399194 -16.33451414 132.29107523 C-16.33593569 129.69861779 -16.34020534 127.10618133 -16.34550858 124.5137291 C-16.36401227 115.46828631 -16.37217875 106.42290249 -16.37060547 97.37744141 C-16.36940393 88.94769789 -16.39050769 80.51821035 -16.4220928 72.08853161 C-16.44825002 64.84933904 -16.458973 57.6102301 -16.45769465 50.37099063 C-16.45718486 46.04812998 -16.46287754 41.72549682 -16.48405075 37.40268326 C-16.50342396 33.3363451 -16.50356414 29.27045165 -16.48901749 25.20409775 C-16.48692713 23.71337993 -16.49164386 22.22263434 -16.5037384 20.73196411 C-16.51920222 18.69369035 -16.50747875 16.65526482 -16.49447632 14.61697388 C-16.49556585 13.47730227 -16.49665539 12.33763065 -16.49777794 11.16342354 C-15.88093106 7.24330618 -14.45425616 5.08568158 -12 2 C-7.94633625 -0.7024425 -4.75468449 -0.52736817 0 0 Z "
    transform="translate(484,424)" />
  <path
    d="M0 0 C-4.42894711 8.14129592 -8.88810921 16.26549656 -13.375 24.375 C-13.99632812 25.50421875 -14.61765625 26.6334375 -15.2578125 27.796875 C-26.99907853 48.99907853 -26.99907853 48.99907853 -30 52 C-32.14558827 52.08775605 -34.29404421 52.10695219 -36.44140625 52.09765625 C-37.74658203 52.09443359 -39.05175781 52.09121094 -40.39648438 52.08789062 C-41.7851569 52.07953401 -43.17382877 52.07106905 -44.5625 52.0625 C-45.95507656 52.05748666 -47.34765481 52.05292347 -48.74023438 52.04882812 C-52.1601987 52.03699434 -55.58007844 52.0205088 -59 52 C-57.58603565 48.25261047 -55.88541384 44.81099331 -53.9453125 41.30859375 C-53.3380835 40.20749268 -52.73085449 39.1063916 -52.10522461 37.97192383 C-50.77029523 35.57675479 -49.41447398 33.19475911 -48.04516602 30.8190918 C-47.34577219 29.60117606 -46.6471238 28.38283196 -45.94921875 27.1640625 C-45.42942192 26.25703331 -45.42942192 26.25703331 -44.89912415 25.3316803 C-42.77785588 21.56672269 -41.00607922 17.77986156 -39.39453125 13.7734375 C-31.57307672 -4.35469084 -17.38970426 -2.153011 0 0 Z "
    transform="translate(398,483)" />
  <path
    d="M0 0 C1.20970459 0.00523682 2.41940918 0.01047363 3.66577148 0.01586914 C4.97094727 0.0190918 6.27612305 0.02231445 7.62084961 0.02563477 C9.00952213 0.03399138 10.39819401 0.04245634 11.78686523 0.05102539 C13.17944179 0.05603873 14.57202005 0.06060193 15.96459961 0.06469727 C19.38456394 0.07653105 22.80444367 0.09301659 26.22436523 0.11352539 C25.59104895 3.17548314 24.5671331 5.52348023 22.99389648 8.21899414 C22.52709473 9.02618896 22.06029297 9.83338379 21.5793457 10.66503906 C20.81581787 11.96985229 20.81581787 11.96985229 20.03686523 13.30102539 C18.95101682 15.17532318 17.86643831 17.0503571 16.78295898 18.92602539 C16.20787598 19.92118164 15.63279297 20.91633789 15.0402832 21.94165039 C11.21370405 28.62555955 7.49404674 35.37056681 3.77050781 42.11230469 C3.20614014 43.12719971 2.64177246 44.14209473 2.06030273 45.18774414 C1.31079346 46.54258911 1.31079346 46.54258911 0.54614258 47.92480469 C-0.77563477 50.11352539 -0.77563477 50.11352539 -2.77563477 52.11352539 C-5.66479492 52.34057617 -5.66479492 52.34057617 -9.31469727 52.30883789 C-11.26762695 52.29916992 -11.26762695 52.29916992 -13.26000977 52.28930664 C-14.64022072 52.27259468 -16.02042905 52.25566478 -17.40063477 52.23852539 C-18.78864929 52.22849545 -20.17667066 52.21936962 -21.56469727 52.21118164 C-24.96851503 52.18754402 -28.37198983 52.15459406 -31.77563477 52.11352539 C-30.25631733 47.32621058 -28.25949231 43.25996793 -25.65063477 38.98852539 C-20.33480945 30.13255409 -15.21754299 21.16912417 -10.11956787 12.18670654 C-9.08823269 10.36991625 -8.0550643 8.55417829 -7.02172852 6.73852539 C-6.42030029 5.67891602 -5.81887207 4.61930664 -5.19921875 3.52758789 C-3.19607071 0.13072151 -3.19607071 0.13072151 0 0 Z "
    transform="translate(407.775634765625,482.886474609375)" />
  <path
    d="M0 0 C-3.9433919 8.12903996 -8.20390954 15.98090486 -12.8125 23.75 C-14.04134692 25.83796383 -15.26920865 27.9265078 -16.49609375 30.015625 C-17.09019043 31.02689453 -17.68428711 32.03816406 -18.29638672 33.08007812 C-21.94856985 39.33976719 -25.4701849 45.67067638 -29 52 C-37.58 52 -46.16 52 -55 52 C-55 43.00031196 -55 43.00031196 -52.32421875 38.41796875 C-51.46376953 36.90867798 -51.46376953 36.90867798 -50.5859375 35.36889648 C-49.2963407 33.20779361 -48.00594794 31.04716555 -46.71484375 28.88696289 C-43.64650979 23.72236188 -40.78513037 18.77716177 -38.67578125 13.140625 C-31.53282305 -4.69565671 -16.70007536 -1.95216215 0 0 Z "
    transform="translate(361,483)" />
  <path
    d="M0 0 C1.01964844 -0.0103125 2.03929687 -0.020625 3.08984375 -0.03125 C6.8439517 0.63965497 8.37406236 1.8138272 11.0625 4.5 C11.69741821 7.3458252 11.69741821 7.3458252 11.70947266 10.67382812 C11.72523346 11.92192261 11.74099426 13.17001709 11.75723267 14.45593262 C11.74828283 15.81438073 11.73802783 17.17282079 11.7265625 18.53125 C11.72993212 19.9284304 11.73478596 21.32560794 11.74105835 22.72277832 C11.74842308 25.64831503 11.73773886 28.57308744 11.71435547 31.49853516 C11.68586574 35.24503662 11.70227216 38.98974739 11.73221779 42.73618317 C11.75030287 45.62051846 11.74452768 48.50443051 11.73157883 51.38877869 C11.72824805 52.76985385 11.73232051 54.15096769 11.74397659 55.53199768 C11.75670108 57.46338141 11.73386055 59.39490021 11.70947266 61.32617188 C11.70549469 62.42441284 11.70151672 63.52265381 11.69741821 64.6541748 C11.0625 67.5 11.0625 67.5 8.69198608 69.85266113 C5.70720596 71.7225871 4.05568986 72.03924932 0.5625 72 C-0.81421875 72.01546875 -0.81421875 72.01546875 -2.21875 72.03125 C-5.79294915 71.33284327 -7.3606868 70.05847721 -9.9375 67.5 C-10.56568909 64.6541748 -10.56568909 64.6541748 -10.56860352 61.32617188 C-10.58113663 60.07807739 -10.59366974 58.82998291 -10.60658264 57.54406738 C-10.59431427 56.18561764 -10.58089424 54.82717788 -10.56640625 53.46875 C-10.5672352 52.07157201 -10.56969557 50.67439413 -10.57371521 49.27722168 C-10.57657149 46.35167012 -10.56189062 43.42688488 -10.53442383 40.50146484 C-10.50033957 36.75514738 -10.50635986 33.01019989 -10.5250864 29.26381683 C-10.53566517 26.37950258 -10.52671098 23.49550604 -10.51170158 20.61122131 C-10.50652562 19.23015792 -10.50699451 17.84906126 -10.51324654 16.46800232 C-10.51870814 14.53656718 -10.49545223 12.60511553 -10.47094727 10.67382812 C-10.46474869 9.57558716 -10.45855011 8.47734619 -10.4521637 7.3458252 C-9.36379119 1.32768572 -5.66685471 -0.05716877 0 0 Z "
    transform="translate(449.9375,473.5)" />
  <path
    d="M0 0 C2.22694714 1.07223381 4.25980644 2.17554489 6.3125 3.5625 C9.54135305 5.28956093 12.38958879 5.55557658 16 6 C16.48919922 7.46759766 16.48919922 7.46759766 16.98828125 8.96484375 C17.19880127 9.59511475 17.40932129 10.22538574 17.6262207 10.87475586 C18.0875116 12.26125417 18.54563381 13.64881035 19.00073242 15.03735352 C19.93373582 17.87351138 20.86635899 20.67425005 22 23.4375 C26.71394615 35.04105975 24.32693703 47.71905703 20 59 C15.25 58.125 15.25 58.125 13 57 C13.49618052 53.69212986 14.11999894 50.59059184 15.0625 47.375 C16.5520327 41.57366212 17.39129775 34.23209169 14.984375 28.640625 C14.65953125 28.09921875 14.3346875 27.5578125 14 27 C14.04640625 27.71542969 14.0928125 28.43085937 14.140625 29.16796875 C14.52434752 39.76145125 11.87461019 48.64186582 7 58 C4.0625 57.1875 4.0625 57.1875 1 56 C-0.29323107 52.12030679 0.62031462 51.10631469 2.375 47.5 C4.7847377 42.4920535 6.12831792 38.90702332 6.0625 33.3125 C6.05347656 32.31863281 6.04445313 31.32476563 6.03515625 30.30078125 C6.02355469 29.54152344 6.01195313 28.78226563 6 28 C5.84144531 28.9178125 5.68289062 29.835625 5.51953125 30.78125 C3.79031946 39.87633081 1.72012683 46.53383145 -5 53 C-6.65 52.34 -8.3 51.68 -10 51 C-9.46440812 46.44746905 -7.56690723 43.73368325 -5 40 C-3.07123457 36.03999285 -2.7274865 32.76394262 -2.65625 28.37890625 C-2.62660156 27.11369141 -2.59695312 25.84847656 -2.56640625 24.54492188 C-2.54449219 23.23072266 -2.52257812 21.91652344 -2.5 20.5625 C-2.45646693 17.95947837 -2.4046777 15.35657882 -2.34375 12.75390625 C-2.31571289 11.02636108 -2.31571289 11.02636108 -2.28710938 9.26391602 C-1.99113429 5.89921289 -1.19498695 3.14817045 0 0 Z "
    transform="translate(118,542)" />
  <path
    d="M0 0 C4.06999973 2.07199986 6.34632514 3.75323874 8 8 C8.24590892 12.58210297 7.55448599 16.14144105 5.0625 20 C1.26374303 23.68364313 -2.18474843 23.38615466 -7.29296875 23.359375 C-10 23 -10 23 -13.125 20.625 C-16.34135223 16.12210687 -16.84400747 12.46770059 -16 7 C-12.21414642 0.16286144 -7.2943747 -0.89494009 0 0 Z "
    transform="translate(148,500)" />
  <path
    d="M0 0 C0.33 0 0.66 0 1 0 C1 12.21 1 24.42 1 37 C-5.93 37 -12.86 37 -20 37 C-18.58584197 33.46460493 -17.19643278 30.35897241 -15.390625 27.05078125 C-14.88273437 26.11943359 -14.37484375 25.18808594 -13.8515625 24.22851562 C-13.32304687 23.26623047 -12.79453125 22.30394531 -12.25 21.3125 C-11.73695313 20.36955078 -11.22390625 19.42660156 -10.6953125 18.45507812 C-3.37472461 5.07385277 -3.37472461 5.07385277 0 0 Z "
    transform="translate(433,498)" />
  <path
    d="M0 0 C6.27 0 12.54 0 19 0 C17.44023197 3.89942009 15.82812569 7.25644899 13.77734375 10.88671875 C13.15666016 11.98951172 12.53597656 13.09230469 11.89648438 14.22851562 C11.25001953 15.36998047 10.60355469 16.51144531 9.9375 17.6875 C8.65406631 19.96174322 7.37207296 22.23679596 6.08984375 24.51171875 C5.23700806 26.01931763 5.23700806 26.01931763 4.36694336 27.55737305 C3.54751944 29.02162314 2.75039775 30.4992045 2 32 C1.34 32 0.68 32 0 32 C0 21.44 0 10.88 0 0 Z "
    transform="translate(305,483)" />
  <path
    d="M0 0 C4.4297642 0.79102932 5.89210172 1.98974785 8.5 5.625 C9.21235686 9.4242366 8.81263988 11.06224821 6.9375 14.4375 C3.73003157 17.31599731 1.7850666 17.70017661 -2.5 17.625 C-5.30189446 15.85858828 -7.01524911 14.59450178 -8.5 11.625 C-9.03507099 7.6119676 -8.83051628 6.08571967 -6.4375 2.75 C-3.5 0.625 -3.5 0.625 0 0 Z "
    transform="translate(131.5,524.375)" />
  <path d="M0 0 C0.66 0 1.32 0 2 0 C2 2.31 2 4.62 2 7 C1.01 7.33 0.02 7.66 -1 8 C-0.67 5.36 -0.34 2.72 0 0 Z "
    transform="translate(132,490)" />
</svg>
