<svg id="svg" version="1.1" xmlns="http://www.w3.org/2000/svg" xmlns:xlink="http://www.w3.org/1999/xlink" width="400" height="400" viewBox="0, 0, 400,400"><g id="svgg"><path id="path0" d="M174.626 123.411 C 174.369 123.826,174.947 125.671,175.909 127.512 C 177.863 131.253,178.825 144.479,177.572 150.391 C 176.942 153.362,176.675 153.595,172.148 155.119 C 160.138 159.162,158.628 164.080,169.053 165.196 C 175.053 165.839,176.040 166.688,174.999 170.315 C 173.328 176.142,169.318 178.727,156.115 182.492 C 140.048 187.072,138.835 188.931,148.784 193.720 C 156.909 197.631,162.106 196.682,179.088 188.183 C 185.848 184.799,191.591 182.031,191.849 182.031 C 196.254 182.031,168.610 200.793,161.283 202.776 C 156.350 204.111,156.250 204.191,156.250 206.788 C 156.250 212.611,160.689 217.969,165.514 217.969 L 168.179 217.969 166.220 219.510 C 161.660 223.097,160.873 228.125,164.872 228.125 C 168.428 228.125,170.300 231.422,168.513 234.536 C 165.807 239.250,166.587 239.744,173.780 237.870 C 179.704 236.327,185.742 232.916,186.270 230.814 C 187.804 224.700,181.252 217.248,174.233 217.126 C 172.291 217.092,171.230 216.880,171.875 216.655 C 172.520 216.431,176.214 214.700,180.085 212.810 C 183.956 210.920,188.216 209.061,189.551 208.678 L 191.978 207.982 192.506 220.202 C 193.031 232.322,192.203 245.458,190.660 249.518 C 189.254 253.214,183.420 251.749,175.781 245.781 C 169.005 240.487,164.063 238.831,164.063 241.854 C 164.063 244.704,180.592 263.763,189.122 270.748 C 206.565 285.031,209.375 279.552,209.375 231.258 L 209.375 205.469 216.250 205.469 C 225.851 205.469,226.934 203.961,222.676 196.518 C 219.703 191.323,218.030 190.625,208.557 190.625 C 204.280 190.625,200.781 190.305,200.781 189.913 C 200.781 187.391,209.506 183.379,218.750 181.652 C 224.396 180.597,231.289 177.949,232.039 176.547 C 234.179 172.549,232.772 169.152,227.967 166.717 C 220.712 163.040,216.386 163.291,198.125 168.448 C 187.222 171.526,186.719 171.578,186.719 169.614 C 186.719 167.339,190.573 163.724,195.829 161.071 C 207.907 154.974,209.829 146.403,198.982 147.010 L 194.409 147.266 195.028 141.797 C 196.247 131.030,194.794 126.085,190.007 124.712 C 188.628 124.316,187.500 123.692,187.500 123.324 C 187.500 122.397,175.201 122.480,174.626 123.411 M281.109 126.062 C 274.552 128.163,274.882 127.591,267.647 149.378 C 262.515 164.828,260.615 169.298,251.905 186.404 C 238.743 212.253,237.679 214.405,232.425 225.781 C 229.945 231.152,225.997 239.590,223.653 244.531 C 216.146 260.349,214.022 270.660,217.208 275.815 C 219.304 279.205,228.125 273.213,228.125 268.400 C 228.125 263.612,235.605 245.679,243.257 232.120 C 245.589 227.989,248.462 222.852,249.642 220.703 C 250.823 218.555,253.274 214.160,255.090 210.938 C 276.713 172.559,284.803 154.975,290.999 132.887 C 293.687 123.305,292.427 122.436,281.109 126.062 M133.243 133.008 C 133.076 133.545,132.749 139.082,132.515 145.313 C 131.718 166.546,125.848 183.640,107.858 217.121 C 105.685 221.166,103.906 225.132,103.906 225.934 C 103.906 232.937,120.246 220.111,128.629 206.528 C 129.121 205.730,128.891 207.770,128.119 211.060 C 122.193 236.312,124.134 257.883,132.894 264.120 C 136.207 266.480,137.000 265.775,138.922 258.759 C 142.296 246.448,146.469 205.487,144.794 201.122 C 143.683 198.225,142.262 200.243,141.321 206.055 L 140.341 212.109 138.975 206.711 C 138.224 203.742,136.892 200.343,136.015 199.157 L 134.422 197.001 139.023 187.368 C 147.990 168.592,152.308 151.916,150.008 144.947 C 147.796 138.245,134.542 128.806,133.243 133.008 M97.918 152.253 C 89.904 156.672,63.054 176.142,50.413 186.700 C 46.940 189.601,41.640 193.550,38.637 195.475 C 35.633 197.400,31.468 200.876,29.380 203.199 C 27.293 205.521,24.135 208.151,22.363 209.043 C 19.166 210.651,19.139 210.701,18.909 215.457 L 18.677 220.250 22.034 222.706 C 23.880 224.057,25.918 225.349,26.563 225.577 C 27.207 225.805,32.388 228.229,38.075 230.964 C 43.762 233.700,48.745 235.938,49.148 235.938 C 49.551 235.938,50.874 236.770,52.088 237.788 C 53.303 238.806,56.758 240.906,59.766 242.454 C 62.773 244.003,67.344 246.461,69.922 247.915 C 72.500 249.370,76.719 251.725,79.297 253.149 C 81.875 254.574,87.498 257.819,91.793 260.362 C 100.319 265.410,100.659 265.426,103.711 260.944 C 107.450 255.453,104.790 252.409,88.808 243.886 C 85.446 242.093,77.599 237.110,71.370 232.813 C 65.142 228.516,59.867 225.000,59.648 225.000 C 58.807 225.000,39.844 211.923,39.844 211.343 C 39.844 210.871,49.223 204.926,52.443 203.356 C 54.431 202.387,58.304 199.565,61.050 197.086 C 70.622 188.442,89.964 176.387,97.117 174.609 C 104.717 172.720,105.316 171.685,105.409 160.300 C 105.498 149.445,104.655 148.539,97.918 152.253 M297.766 152.405 C 291.478 159.155,291.045 158.685,320.313 176.880 C 338.078 187.925,351.857 197.014,357.904 201.678 L 360.417 203.615 345.512 214.112 C 311.194 238.282,309.656 239.205,300.781 240.954 C 297.269 241.646,296.107 243.152,295.306 248.047 C 293.685 257.968,294.640 264.844,297.640 264.844 C 301.525 264.844,316.740 254.382,349.219 229.377 C 380.538 205.265,381.514 204.306,381.100 198.026 L 380.859 194.390 372.266 189.732 C 367.539 187.171,359.102 182.682,353.516 179.758 C 347.930 176.834,341.953 173.638,340.234 172.657 C 338.516 171.676,335.527 169.994,333.594 168.920 C 320.780 161.802,311.051 155.771,309.375 153.903 C 306.604 150.818,300.035 149.970,297.766 152.405 " stroke="none" fill="#000000" fill-rule="evenodd"></path></g></svg>